<svg width="171" height="36" viewBox="0 0 171 36" xmlns="http://www.w3.org/2000/svg"><title>Slice 1</title><path d="M1.148 1H27.38v1.718L2.293 33.09h24.45v-1.718h1.72v3.372H0v-1.526L25.085 2.656H2.995v1.717H1.147V1m30.698 16.89c.13 11.02 9.36 15.922 15.983 15.857 6.237 0 11.715-3.183 14.39-8.915h1.97c-1.524 3.566-3.945 6.24-6.81 8.022-2.868 1.718-6.178 2.548-9.616 2.548C35.03 35.402 30 25.277 30 17.765 30 7.64 37.77 0 47.828 0c4.52 0 8.85 1.593 12.096 4.52 3.696 3.31 5.858 8.406 5.54 13.37h-33.62zm31.837-1.653c-.383-8.15-7.962-14.9-15.854-14.58-8.343 0-15.408 6.047-15.917 14.58h31.78zm6.164 1.653c.13 11.02 9.36 15.922 15.984 15.857 6.236 0 11.715-3.183 14.387-8.915h1.974c-1.52 3.566-3.94 6.24-6.81 8.022-2.86 1.718-6.17 2.548-9.61 2.548C73.03 35.402 68 25.277 68 17.765 68 7.64 75.768 0 85.83 0c4.52 0 8.85 1.593 12.097 4.52 3.692 3.31 5.858 8.406 5.54 13.37h-33.62zm31.838-1.653c-.382-8.15-7.96-14.9-15.854-14.58-8.343 0-15.41 6.047-15.92 14.58h31.774zM103 1h3.692l13.052 31.707L132.797 1h3.694v1.718h-2.41L120.9 34.744h-2.3L105.42 2.718H103V1m32 16.635C135 7.64 142.64 0 152.765 0c10.12 0 17.762 7.64 17.762 17.7 0 10.123-7.64 17.7-17.762 17.7C142.64 35.4 135 27.823 135 17.7v-.065zm1.78.13c0 9.1 6.88 15.98 15.985 15.98 9.1 0 15.98-6.88 15.98-16.046 0-9.17-6.88-16.05-15.98-16.05-9.104 0-15.984 6.87-15.984 16.04v.063z" fill-rule="evenodd"/></svg>