<svg width="117" height="116" viewBox="0 0 117 116" xmlns="http://www.w3.org/2000/svg" xmlns:xlink="http://www.w3.org/1999/xlink"><title>Fill 460</title><defs><path id="a" d="M8978.72 14237.94V.3H.06v14237.64h8978.66z"/></defs><g transform="translate(-1546 -239)" fill="none" fill-rule="evenodd"><mask id="b" fill="#fff"><use xlink:href="#a"/></mask><path d="M1622.87 320.205c-.83 0-1.66-.318-2.3-.953l-38.36-38.362c-1.27-1.27-1.27-3.327 0-4.597 1.27-1.27 3.33-1.27 4.59 0l38.37 38.363c1.27 1.27 1.27 3.328 0 4.596-.64.635-1.47.953-2.3.953" fill="#0F181F" mask="url(#b)"/><path d="M1584.51 320.205c-.84 0-1.67-.318-2.3-.953-1.27-1.268-1.27-3.326 0-4.596l38.36-38.363c1.27-1.27 3.33-1.27 4.6 0 1.27 1.27 1.27 3.328 0 4.597l-38.37 38.362c-.63.635-1.46.953-2.29.953" fill="#0F181F" mask="url(#b)"/><path d="M1604.69 245.818c-28.26 0-51.25 22.99-51.25 51.244 0 28.256 22.99 51.243 51.25 51.243 28.25 0 51.24-22.987 51.24-51.243 0-28.255-22.99-51.244-51.24-51.244zm0 108.987c-31.84 0-57.75-25.903-57.75-57.743 0-31.84 25.91-57.744 57.75-57.744s57.74 25.904 57.74 57.744-25.9 57.743-57.74 57.743z" fill="#0F181F" mask="url(#b)"/></g></svg>