<svg xmlns="http://www.w3.org/2000/svg" width="373" height="439" viewBox="0 0 373 439"><path d="M366.726 113.34H264.568c-3.038 0-5.5-2.47-5.5-5.5V5.68c0-3.04 2.462-5.5 5.5-5.5 3.036 0 5.5 2.46 5.5 5.5v96.66h96.658c3.038 0 5.5 2.46 5.5 5.5 0 3.03-2.462 5.5-5.5 5.5"/><path d="M11.48 427.97h349.746v-317.8l-98.99-98.99H11.48v416.79zm355.246 11H5.98c-3.038 0-5.5-2.47-5.5-5.5V5.68c0-3.04 2.462-5.5 5.5-5.5h258.535c1.458 0 2.857.58 3.89 1.61L370.615 104c1.03 1.03 1.61 2.43 1.61 3.89v325.58c0 3.03-2.46 5.5-5.5 5.5z"/><path d="M165.285 190.65H73.103c-3.038 0-5.5-2.46-5.5-5.5s2.462-5.5 5.5-5.5h92.182c3.038 0 5.5 2.46 5.5 5.5s-2.462 5.5-5.5 5.5m136.235 0h-92.183c-3.038 0-5.5-2.46-5.5-5.5s2.462-5.5 5.5-5.5h92.182c3.03 0 5.5 2.46 5.5 5.5s-2.47 5.5-5.5 5.5m-136.24 35.63H73.1c-3.04 0-5.5-2.46-5.5-5.5 0-3.03 2.46-5.5 5.5-5.5h92.18c3.04 0 5.5 2.47 5.5 5.5 0 3.04-2.46 5.5-5.5 5.5m136.236 0h-92.184c-3.038 0-5.5-2.46-5.5-5.5 0-3.03 2.462-5.5 5.5-5.5h92.182c3.034 0 5.5 2.47 5.5 5.5 0 3.04-2.466 5.5-5.5 5.5M165.28 261.92H73.1c-3.04 0-5.5-2.47-5.5-5.5 0-3.04 2.46-5.5 5.5-5.5h92.18c3.04 0 5.5 2.46 5.5 5.5 0 3.03-2.46 5.5-5.5 5.5m136.236 0h-92.183c-3.038 0-5.5-2.47-5.5-5.5 0-3.04 2.462-5.5 5.5-5.5h92.182c3.034 0 5.5 2.46 5.5 5.5 0 3.03-2.466 5.5-5.5 5.5M165.28 297.55H73.1c-3.04 0-5.5-2.46-5.5-5.5s2.46-5.5 5.5-5.5h92.18c3.04 0 5.5 2.46 5.5 5.5s-2.46 5.5-5.5 5.5m136.237 0h-92.183c-3.038 0-5.5-2.46-5.5-5.5s2.462-5.5 5.5-5.5h92.182c3.034 0 5.5 2.46 5.5 5.5s-2.466 5.5-5.5 5.5"/></svg>