<svg width="276" height="278" viewBox="0 0 276 278" xmlns="http://www.w3.org/2000/svg"><path d="M121.24 268.348h34.77v-20.324c-.04-.4-.03-.81.05-1.216l.02-.12c.39-2.194 2.35-3.75 4.53-3.7 13.05-2.728 25.33-7.832 36.51-15.183.74-.658 1.67-1.064 2.67-1.14 1.31-.1 2.6.375 3.53 1.304l14.72 14.72 24.58-24.58-13.69-13.7c-1.9-.99-2.84-3.19-2.23-5.26l.06-.23c.21-.7.58-1.33 1.06-1.84 7.52-11.45 12.69-24.04 15.37-37.44.32-1.65 1.54-2.97 3.15-3.44.68-.2 1.38-.23 2.05-.11h19.96v-34.76h-20.68c-1.66 0-3.18-.91-3.96-2.36l-.1-.18c-.21-.4-.36-.82-.45-1.26-2.65-13.19-7.72-25.6-15.07-36.9-.14-.12-.28-.26-.4-.4-1.56-1.79-1.46-4.47.21-6.14l14.8-14.8-24.58-24.58-14.24 14.24c-.36.47-.81.88-1.34 1.18l-.16.09c-1.89 1.08-4.26.66-5.66-.97-11.01-7.17-23.08-12.17-35.91-14.88-2.36.1-4.38-1.61-4.66-3.94l-.02-.15c-.04-.32-.05-.63-.02-.95V9h-34.76v20.906c0 2.32-1.76 4.258-4.07 4.48-.24.022-.48.026-.71.01-13.22 2.786-25.63 8.007-36.91 15.527-1.64 1.09-3.79.992-5.32-.24-.27-.212-.5-.45-.71-.71l-14.32-14.32-24.58 24.58L49.46 73.96c.98.98 1.45 2.36 1.28 3.735-.12.97-.55 1.864-1.21 2.556-7.47 11.38-12.62 23.88-15.31 37.18-.03.18-.06.35-.11.52-.6 2.16-2.68 3.54-4.85 3.3H9V156h19.78c2.05-.442 4.16.593 5.05 2.536l.04.1c.21.465.34.954.39 1.448 2.66 13.05 7.68 25.33 14.95 36.524.33.282.63.615.87.996 1.14 1.78.89 4.116-.6 5.612l-14.82 14.82 24.58 24.582 14.82-14.82c1.21-1.208 2.99-1.627 4.61-1.085.81.273 1.52.766 2.04 1.405 11.12 7.223 23.31 12.237 36.26 14.915 1.67.073 3.2 1.056 3.89 2.646l.05.1c.34.78.45 1.62.33 2.44v20.12zm39.27 9h-43.77c-2.48 0-4.5-2.015-4.5-4.5v-21.64c-12.24-2.86-23.83-7.67-34.53-14.332l-15.29 15.29c-1.76 1.758-4.61 1.758-6.36 0L25.11 221.22c-.84-.843-1.32-1.988-1.32-3.18 0-1.195.48-2.34 1.32-3.183l15.31-15.308c-6.65-10.71-11.45-22.3-14.3-34.55H4.5c-2.48 0-4.5-2.02-4.5-4.5v-43.76c0-2.49 2.02-4.5 4.5-4.5h21.64C29 99.99 33.81 88.4 40.48 77.7l-15.3-15.29c-.84-.844-1.31-1.99-1.31-3.183 0-1.193.47-2.338 1.31-3.18L56.13 25.1c1.76-1.756 4.61-1.756 6.36 0L77.8 40.41c10.71-6.653 22.3-11.45 34.55-14.3V4.5c0-2.486 2.01-4.5 4.5-4.5h43.76c2.49 0 4.5 2.014 4.5 4.5v21.64c12.25 2.86 23.83 7.668 34.54 14.332l15.29-15.29c1.75-1.758 4.6-1.758 6.36 0l30.95 30.945c.84.844 1.31 1.988 1.31 3.182 0 1.19-.47 2.33-1.31 3.18L236.94 77.8c6.65 10.706 11.45 22.297 14.3 34.545h21.61c2.49 0 4.5 2.015 4.5 4.5v43.764c0 2.48-2.01 4.5-4.5 4.5h-21.64c-2.86 12.24-7.67 23.83-14.33 34.53l15.29 15.29c1.76 1.76 1.76 4.6 0 6.36l-30.95 30.94c-1.75 1.75-4.6 1.75-6.36 0l-15.31-15.31c-10.71 6.65-22.3 11.45-34.54 14.3v21.61c0 2.48-2.02 4.5-4.5 4.5z"/><path d="M138.27 100c-21.1 0-38.27 17.168-38.27 38.27 0 21.103 17.17 38.272 38.27 38.272s38.27-17.17 38.27-38.27c0-21.104-17.17-38.272-38.27-38.272zm0 85.542c-26.07 0-47.27-21.206-47.27-47.27C91 112.205 112.2 91 138.27 91c26.06 0 47.27 21.206 47.27 47.27 0 26.066-21.21 47.272-47.27 47.272z"/></svg>