<svg xmlns="http://www.w3.org/2000/svg" width="270" height="269" viewBox="0 0 270 269"><path d="M29.58 9.54c-11.19 0-20.29 9.1-20.29 20.28v153.07c0 11.18 9.1 20.28 20.29 20.28h210.43c11.18 0 20.28-9.1 20.28-20.28V29.82c0-11.18-9.1-20.28-20.28-20.28H29.58zm210.43 202.63H29.58c-16.15 0-29.29-13.14-29.29-29.28V29.82C.29 13.68 13.43.54 29.58.54h210.43c16.14 0 29.28 13.14 29.28 29.28v153.07c0 16.14-13.14 29.28-29.28 29.28z"/><path d="M45.81 30.53c-6.09 0-11.05 4.96-11.05 11.05v103.47c0 6.09 4.96 11.04 11.05 11.04h177.96c6.09 0 11.05-4.95 11.05-11.04V41.58c0-6.09-4.96-11.05-11.05-11.05H45.81zm177.96 134.56H45.81c-11.05 0-20.05-8.99-20.05-20.04V41.58c0-11.06 9-20.05 20.05-20.05h177.96c11.06 0 20.05 8.99 20.05 20.05v103.47c0 11.05-8.99 20.04-20.05 20.04zm-123.05 94.23h71.94c-9.84-12.73-16.67-29.04-19.66-47.15h-32.62c-2.99 18.11-9.82 34.42-19.66 47.15zm81.87 9h-91.8c-1.82 0-3.46-1.1-4.16-2.78-.69-1.68-.31-3.61.98-4.9 12.87-12.89 21.55-31.91 24.43-53.56.3-2.24 2.2-3.91 4.46-3.91h40.38c2.25 0 4.16 1.67 4.46 3.91 2.88 21.65 11.55 40.67 24.43 53.56 1.29 1.29 1.67 3.22.97 4.9-.69 1.68-2.33 2.78-4.15 2.78z"/></svg>