<svg width="72" height="71" viewBox="0 0 72 71" xmlns="http://www.w3.org/2000/svg"><path d="M16.13 19.98H3.91c-1.97 0-3.57-1.598-3.57-3.572V4.19C.34 2.218 1.94.617 3.91.617h12.22c1.97 0 3.57 1.6 3.57 3.574v12.22c0 1.98-1.6 3.58-3.57 3.58m25.98 0H29.89c-1.97 0-3.57-1.59-3.57-3.57V4.2c0-1.973 1.6-3.574 3.57-3.574h12.22c1.97 0 3.57 1.6 3.57 3.574v12.22c0 1.973-1.6 3.572-3.57 3.572m25.98-.002H55.87c-1.97 0-3.57-1.597-3.57-3.57V4.2c0-1.972 1.6-3.573 3.57-3.573h12.22c1.97 0 3.57 1.6 3.57 3.576v12.22c0 1.975-1.6 3.574-3.57 3.574M16.13 45.17H3.91c-1.97 0-3.57-1.6-3.57-3.57V29.38c0-1.97 1.6-3.572 3.57-3.572h12.22c1.97 0 3.57 1.602 3.57 3.575v12.22c0 1.976-1.6 3.577-3.57 3.577m25.98 0H29.89c-1.97 0-3.57-1.6-3.57-3.578v-12.23c0-1.973 1.6-3.574 3.57-3.574h12.22c1.97 0 3.57 1.602 3.57 3.575v12.22c0 1.98-1.6 3.58-3.57 3.58m25.98 0H55.87c-1.97 0-3.57-1.6-3.57-3.576v-12.22c0-1.973 1.6-3.574 3.57-3.574h12.22c1.97 0 3.57 1.602 3.57 3.575v12.216c0 1.978-1.6 3.58-3.57 3.58m-51.96 25.17H3.91c-1.97 0-3.57-1.6-3.57-3.57v-12.22c0-1.976 1.6-3.575 3.57-3.575h12.22c1.97 0 3.57 1.6 3.57 3.57v12.21c0 1.97-1.6 3.57-3.57 3.57m25.98 0H29.89c-1.97 0-3.57-1.6-3.57-3.57V54.55c0-1.975 1.6-3.574 3.57-3.574h12.22c1.97 0 3.57 1.6 3.57 3.573v12.21c0 1.97-1.6 3.57-3.57 3.57m25.98 0H55.87c-1.97 0-3.57-1.6-3.57-3.57V54.55c0-1.978 1.6-3.577 3.57-3.577h12.22c1.97 0 3.57 1.6 3.57 3.575v12.21c0 1.972-1.6 3.57-3.57 3.57"/></svg>