<svg width="117" height="74" viewBox="0 0 117 74" xmlns="http://www.w3.org/2000/svg"><path d="M6.506 67.238h103.436v-34.36l-17.56-25.64H24.066l-17.56 25.64v34.36zm106.686 6.5H3.256c-1.795 0-3.25-1.455-3.25-3.25V31.87c0-.655.198-1.296.57-1.837l19.096-27.88c.606-.885 1.61-1.415 2.68-1.415h71.743c1.072 0 2.076.53 2.68 1.414l19.1 27.88c.37.542.567 1.183.567 1.838v38.618c0 1.795-1.455 3.25-3.25 3.25z"/><path d="M74.68 48.255H41.768c-1.456 0-2.735-.97-3.13-2.37l-3.02-10.764H3.33c-1.794 0-3.25-1.45-3.25-3.25s1.456-3.25 3.25-3.25h34.75c1.457 0 2.736.97 3.13 2.38l3.02 10.77h27.987L75.24 31c.39-1.403 1.67-2.373 3.12-2.373h34.7c1.796 0 3.25 1.456 3.25 3.25s-1.454 3.25-3.25 3.25H80.83l-3.02 10.765c-.395 1.4-1.674 2.37-3.13 2.37"/></svg>