<svg width="116" height="115" viewBox="0 0 116 115" xmlns="http://www.w3.org/2000/svg"><path d="M6.962 108.12h101.984v-7.016c0-7.182-5.84-13.262-13.016-13.553-.16 0-.322-.02-.48-.05l-1.018-.2c-.7-.14-1.443-.29-2.213-.45-4.47-.94-8.06-1.9-10.67-2.84-1.64-.58-2.89-1.17-3.85-1.78-1.07-.68-2.19-1.42-3.18-2.15-.78-.58-1.43-1.12-1.97-1.66-.43-.42-.8-.84-1.13-1.27-1.25-1.65-1.85-3.53-1.85-5.76 0-.93.15-1.95.48-3.1.27-.97.66-2 1.18-3.15.24-.54.5-1.09.78-1.63l.04-.09c.18-.35.36-.7.54-1.04.05-.09.1-.17.15-.26.39-.6.77-1.23 1.14-1.86l.26-.46c.32-.56.63-1.13.93-1.7l.13-.25c2.87-5.54 4.93-11.83 5.67-17.28l.02-.15c.07-.53.26-3.26.27-3.73v-8.11c0-12.12-9.86-21.98-21.98-21.98h-2.55c-1.48 0-2.97.15-4.41.45-1.41.29-2.79.73-4.11 1.29-.33.14-.65.29-.97.44-7.58 3.67-12.48 11.44-12.48 19.8v8.11c0 .48.2 3.21.27 3.74l.01.12c.73 5.46 2.8 11.76 5.66 17.28l.14.26c.29.57.61 1.13.93 1.69l.26.46c.37.64.75 1.26 1.14 1.87.06.08.11.17.15.26.53 1.02.98 1.93 1.36 2.77.32.7.59 1.38.82 2.03.57 1.6.84 2.98.84 4.23 0 1.28-.2 2.42-.59 3.48-.9 2.42-2.71 4-4.36 5.22-.99.74-2.16 1.51-3.17 2.16-2.15 1.39-6.12 2.73-12.13 4.11-1.74.4-3.63.8-5.61 1.18-.16.03-.32.05-.48.06-3.03.12-5.97 1.29-8.28 3.28-.64.56-1.24 1.18-1.77 1.84C8.81 94.07 8 95.58 7.5 97.22c-.383 1.27-.58 2.59-.58 3.92v7.02zm105.234 6.5H3.712c-1.795 0-3.25-1.456-3.25-3.25v-10.266c0-1.978.29-3.935.864-5.817.74-2.43 1.926-4.677 3.523-6.674.77-.976 1.65-1.884 2.6-2.7 3.35-2.894 7.61-4.61 12.01-4.845 1.82-.35 3.55-.714 5.15-1.082 7.06-1.62 9.39-2.803 10.06-3.238.92-.59 1.97-1.28 2.8-1.9 1.26-.94 1.9-1.62 2.15-2.28.12-.32.17-.713.17-1.202 0-.335-.08-.962-.47-2.053-.17-.475-.38-.99-.62-1.527-.32-.69-.69-1.44-1.13-2.292-.42-.65-.83-1.32-1.22-1.996l-.3-.524c-.36-.626-.71-1.262-1.05-1.908l-.16-.295c-3.19-6.16-5.5-13.22-6.33-19.37l-.02-.14c-.1-.73-.33-3.8-.33-4.61v-8.11c0-10.84 6.34-20.91 16.15-25.65.41-.2.83-.39 1.26-.57 1.72-.73 3.51-1.29 5.34-1.67C52.8.27 54.72.07 56.65.07h2.556C74.926.07 87.7 12.84 87.7 28.54v8.106c0 .806-.233 3.876-.325 4.58l-.022.182c-.83 6.147-3.135 13.21-6.326 19.376l-.148.28c-.34.652-.69 1.29-1.05 1.918l-.3.52c-.4.68-.81 1.35-1.23 2-.15.27-.29.544-.42.817-.28.55-.5 1.01-.71 1.47-.38.84-.67 1.6-.85 2.24-.2.69-.24 1.11-.24 1.33 0 .94.21 1.4.54 1.85.13.17.29.36.49.55.33.32.75.67 1.29 1.07.83.62 1.88 1.31 2.8 1.9.36.23 1.09.62 2.53 1.14 2.3.83 5.69 1.72 9.8 2.6.74.15 1.45.3 2.13.43l.75.15c10.67.56 18.99 9.31 18.99 20.03v10.26c0 1.79-1.46 3.25-3.25 3.25z"/></svg>