<svg width="100" height="117" viewBox="0 0 100 117" xmlns="http://www.w3.org/2000/svg"><path d="M96.63 33.32H70.46c-1.796 0-3.25-1.455-3.25-3.25V3.897c0-1.794 1.454-3.25 3.25-3.25 1.794 0 3.248 1.456 3.248 3.25v22.92h22.92c1.796 0 3.25 1.456 3.25 3.25 0 1.797-1.454 3.252-3.25 3.252"/><path d="M7.465 110.238H93.38V31.43L69.1 7.15H7.464v103.088zm89.164 6.5H4.21c-1.795 0-3.25-1.455-3.25-3.25V3.898c0-1.794 1.455-3.25 3.25-3.25h66.23c.862 0 1.69.343 2.3.954l26.182 26.183c.61.61.952 1.436.952 2.298v83.405c0 1.795-1.456 3.25-3.25 3.25z"/><path d="M68.513 61.943h-36.18c-1.796 0-3.25-1.455-3.25-3.25s1.454-3.25 3.25-3.25h36.18c1.795 0 3.25 1.455 3.25 3.25s-1.455 3.25-3.25 3.25"/><path d="M50.422 80.033c-1.795 0-3.25-1.454-3.25-3.25v-36.18c0-1.795 1.455-3.25 3.25-3.25s3.25 1.455 3.25 3.25v36.18c0 1.796-1.455 3.25-3.25 3.25"/></svg>