<svg width="17" height="27" viewBox="0 0 17 27" xmlns="http://www.w3.org/2000/svg"><title>Artboard 1</title><path d="M10.096 5.87V0H5.89c-.096.217-.146.475-.146.74-.045.126-.095.217-.095.347C5.215 3.26 3.96 4.782 1.833 5.61c-.628.26-1.206.3-1.834.26v4.735h3.09c.05 6.656.05 10.09.05 10.264v.393c.39 2.91 2.076 4.65 5.07 5.302 1.206.306 2.508.435 3.815.435 1.688-.043 3.33-.304 4.975-.783v-5.565c-.964.26-1.84.477-2.608.692-1.497.396-2.753.134-3.77-.735-.095-.132-.24-.307-.29-.48-.14-.696-.235-1.433-.235-2.132v-7.392h6.705V5.87h-6.706z" fill="#FFF" fill-rule="evenodd"/></svg>