<svg width="116" height="117" viewBox="0 0 116 117" xmlns="http://www.w3.org/2000/svg"><title>Slice 1</title><g fill-rule="evenodd"><path d="M57.96 7.23C29.7 7.23 6.72 30.216 6.72 58.472c0 28.256 22.98 51.244 51.24 51.244S109.2 86.73 109.2 58.473 86.22 7.23 57.96 7.23zm0 108.987C26.12 116.217.22 90.313.22 58.473S26.12.73 57.96.73c31.84 0 57.74 25.903 57.74 57.743 0 31.84-25.9 57.744-57.74 57.744z"/><path d="M53.023 64.195l-1.25-18.71c-.234-3.646-.35-6.264-.35-7.852 0-2.162.565-3.848 1.698-5.06 1.14-1.21 2.63-1.815 4.48-1.815 2.24 0 3.74.775 4.49 2.324.76 1.55 1.14 3.783 1.14 6.7 0 1.718-.09 3.463-.27 5.234l-1.68 19.257c-.18 2.292-.57 4.05-1.17 5.274-.6 1.224-1.59 1.836-2.97 1.836-1.4 0-2.38-.593-2.93-1.778-.54-1.184-.93-2.988-1.17-5.41zm4.336 25.703c-1.59 0-2.98-.514-4.16-1.543-1.19-1.028-1.78-2.467-1.78-4.316 0-1.62.56-2.99 1.7-4.13s2.52-1.7 4.16-1.7c1.64 0 3.04.56 4.2 1.7 1.16 1.13 1.74 2.5 1.74 4.12 0 1.82-.59 3.25-1.76 4.3-1.17 1.04-2.54 1.56-4.1 1.56z"/></g></svg>