<svg width="269" height="270" viewBox="0 0 269 270" xmlns="http://www.w3.org/2000/svg"><path d="M100.7 249.14l3.31 10.56 17.42-5.48-3.26-10.38c-.14-.36-.24-.73-.29-1.11-.25-2.06.92-4.02 2.79-4.77 7.13-3.98 13.36-9.22 18.53-15.58.49-.68 1.17-1.22 1.96-1.53 1.21-.49 2.6-.46 3.76.15l10 5.21 8.44-16.19-8.99-4.69c-1.95-.48-3.38-2.22-3.42-4.28v-.14c-.01-.68.12-1.33.39-1.92 2.24-7.96 2.93-16.15 2.04-24.35-.18-1.66.58-3.29 1.98-4.22.54-.36 1.14-.6 1.75-.7l10.12-3.18-5.47-17.42-10.68 3.35c-1.58.5-3.3.09-4.49-1.07l-.09-.08c-.31-.31-.58-.67-.8-1.06-3.94-7.17-9.15-13.45-15.49-18.66-.01-.01-.03-.02-.04-.03-2.02-1.23-2.76-3.78-1.67-5.88l5.25-10.05-16.19-8.45-4.97 9.52c-.2.51-.49.99-.87 1.41l-.09.09c-1.4 1.53-3.66 1.88-5.45.91-7.59-2.09-15.52-2.78-23.35-2.02-2.08.52-4.26-.47-5.17-2.47-.08-.19-.16-.39-.21-.59h-.01l-3.37-10.72-17.42 5.47 3.4 10.81c.7 2.21-.4 4.59-2.54 5.49-.14.06-.28.11-.43.16-7.07 4-13.24 9.25-18.37 15.61-1.23 1.53-3.32 2.08-5.15 1.36-.28-.11-.54-.25-.79-.4l-9.6-5.02-8.45 16.2 10 5.21c1.23.64 2.1 1.82 2.35 3.18.16.91.05 1.83-.32 2.64-2.22 7.9-2.92 16.02-2.06 24.16.02.15.03.3.04.45.08 2.21-1.44 4.13-3.54 4.59l-10.34 3.25 5.48 17.42 10.18-3.2c1.75-.81 3.86-.42 5.19 1.06.26.29.48.61.66.95 3.89 7.09 9.02 13.31 15.25 18.49.31.16.61.35.88.58 1.62 1.35 2.08 3.66 1.1 5.53l-5.25 10.07 16.19 8.45 5.26-10.07c.79-1.52 2.35-2.45 4.07-2.42.76.01 1.48.22 2.12.58 7.59 2.08 15.53 2.76 23.37 1.98 1.57-.36 3.26.14 4.37 1.41.47.53.8 1.16.98 1.83zm.37 20.7c-1.92 0-3.69-1.23-4.29-3.15l-3.65-11.59c-7.11.4-14.19-.24-21.09-1.88l-5.61 10.76c-1.15 2.2-3.87 3.06-6.07 1.91l-24.17-12.61c-2.21-1.15-3.06-3.87-1.91-6.07l5.62-10.78c-5.32-4.74-9.87-10.18-13.59-16.23l-11.58 3.63c-2.36.75-4.89-.57-5.64-2.94L.92 194.88c-.75-2.37.57-4.89 2.94-5.64l11.59-3.64c-.4-7.1.23-14.16 1.88-21.09l-10.76-5.62c-2.2-1.15-3.06-3.86-1.91-6.07l12.61-24.17c1.15-2.2 3.87-3.06 6.07-1.91l10.78 5.63c4.74-5.32 10.18-9.88 16.24-13.6l-3.64-11.57c-.75-2.37.57-4.9 2.94-5.64l26.01-8.18c1.14-.35 2.37-.24 3.43.31s1.85 1.5 2.21 2.64l3.64 11.59c7.12-.4 14.2.23 21.1 1.88l5.61-10.76c.55-1.06 1.5-1.86 2.64-2.22 1.14-.35 2.37-.24 3.43.31l24.17 12.61c2.2 1.15 3.06 3.87 1.91 6.07l-5.62 10.77c5.31 4.74 9.87 10.18 13.59 16.24l11.57-3.64c2.37-.74 4.9.58 5.65 2.95l8.17 26c.74 2.38-.57 4.9-2.94 5.65l-11.59 3.64c.4 7.09-.23 14.16-1.88 21.09l10.76 5.61c1.06.56 1.85 1.51 2.21 2.64.36 1.14.25 2.38-.3 3.44l-12.61 24.17c-1.15 2.2-3.87 3.05-6.08 1.9l-10.77-5.62c-4.74 5.32-10.18 9.87-16.24 13.6l3.64 11.57c.74 2.37-.57 4.89-2.94 5.64l-26.01 8.17c-.45.14-.9.21-1.35.21z"/><path d="M89.05 159.36c-2.24 0-4.48.34-6.65 1.02-5.64 1.78-10.25 5.64-12.99 10.89-2.73 5.24-3.26 11.24-1.49 16.88 2.92 9.28 11.4 15.51 21.12 15.51 2.24 0 4.48-.35 6.64-1.03 11.65-3.66 18.15-16.11 14.49-27.76-2.92-9.28-11.4-15.51-21.12-15.51zm-.01 53.3c-13.67 0-25.61-8.77-29.71-21.81-2.49-7.94-1.75-16.37 2.1-23.75 3.85-7.37 10.34-12.81 18.28-15.3 3.04-.96 6.18-1.44 9.34-1.44 13.67 0 25.6 8.76 29.7 21.81 5.15 16.38-3.99 33.9-20.37 39.05-3.04.95-6.18 1.44-9.34 1.44zm114.62-91.95l1.31 7.17 11.48-2.1-1.28-7.02c-.09-.35-.14-.72-.14-1.09 0-2.05 1.38-3.82 3.28-4.36 5.58-2.28 10.61-5.54 14.98-9.72.57-.6 1.3-1.05 2.1-1.26 1.27-.33 2.64-.13 3.72.62l6.14 4.24 6.64-9.6-5.33-3.68c-1.82-.76-2.96-2.63-2.74-4.63l.01-.11c.07-.64.27-1.24.58-1.77 2.36-5.63 3.6-11.57 3.7-17.66.03-1.68.99-3.2 2.49-3.95.55-.28 1.14-.43 1.74-.47l6.77-1.24-2.1-11.48-7.27 1.33c-1.63.3-3.28-.31-4.32-1.6-.28-.35-.57-.81-.73-1.23-2.24-5.62-5.48-10.69-9.64-15.09-1.83-1.48-2.23-4.09-.89-6.03l4.27-6.18-9.61-6.63-3.97 5.76c-.26.46-.6.89-1.02 1.24-1.49 1.26-3.61 1.42-5.23.47-5.45-2.28-11.18-3.52-17.06-3.68-2.08.22-4.09-1.03-4.74-3.09-.06-.2-.11-.41-.14-.61h-.01l-1.33-7.31-11.48 2.1 1.35 7.37c.41 2.28-.97 4.51-3.2 5.14-.11.03-.21.06-.32.08-5.52 2.3-10.51 5.58-14.84 9.76-1.41 1.37-3.55 1.66-5.27.72-.25-.14-.48-.29-.7-.47l-5.82-4.02-6.64 9.6 6.14 4.24c1.15.79 1.86 2.06 1.94 3.45.05.89-.16 1.76-.6 2.51-2.35 5.62-3.6 11.54-3.7 17.62-.04 2.3-1.8 4.19-4.04 4.42l-6.96 1.27 2.1 11.48 6.83-1.25c1.82-.55 3.84.11 4.96 1.73.22.31.39.65.52 1 2.24 5.6 5.47 10.67 9.62 15.07.17.14.33.29.48.45 1.44 1.55 1.65 3.87.45 5.61l-4.27 6.19 9.6 6.63 4.27-6.19c.97-1.4 2.65-2.14 4.34-1.9.7.1 1.36.36 1.92.75 5.38 2.21 11.03 3.4 16.83 3.55 1.59-.14 3.18.58 4.11 1.96.39.58.63 1.23.72 1.89zm-2.31 16.9c-2.13 0-4.02-1.52-4.42-3.69l-1.51-8.23c-4.9-.4-9.71-1.44-14.35-3.1l-4.76 6.88c-.67.98-1.71 1.65-2.89 1.87-1.17.21-2.38-.05-3.37-.73l-17-11.74c-2.05-1.42-2.56-4.22-1.15-6.26l4.76-6.89c-3.19-3.76-5.86-7.89-7.97-12.34l-8.22 1.5c-2.44.45-4.79-1.17-5.23-3.62l-3.72-20.33c-.22-1.17.04-2.38.72-3.37.68-.98 1.72-1.65 2.89-1.86l8.24-1.51c.4-4.91 1.44-9.71 3.1-14.36l-6.88-4.75c-2.05-1.41-2.56-4.22-1.15-6.26l11.75-17.01c.68-.98 1.72-1.65 2.89-1.87 1.18-.21 2.39.05 3.37.73l6.89 4.76c3.76-3.2 7.89-5.86 12.34-7.97l-1.51-8.22c-.21-1.18.05-2.39.73-3.37.68-.98 1.72-1.65 2.89-1.87L198.12.28c2.44-.44 4.79 1.17 5.24 3.62l1.51 8.23c4.9.4 9.71 1.44 14.36 3.1l4.75-6.88c.67-.98 1.71-1.65 2.89-1.87 1.17-.21 2.38.05 3.37.73l17 11.74c.99.68 1.66 1.72 1.87 2.9.22 1.17-.04 2.38-.72 3.36l-4.76 6.89c3.19 3.76 5.86 7.89 7.97 12.34l8.22-1.5c1.17-.22 2.38.05 3.37.72.98.68 1.65 1.72 1.86 2.9l3.72 20.33c.45 2.44-1.17 4.79-3.61 5.24l-8.24 1.5c-.4 4.91-1.43 9.71-3.09 14.36l6.87 4.75c.99.68 1.66 1.72 1.87 2.89.22 1.18-.04 2.39-.72 3.37l-11.75 17.01c-.68.98-1.72 1.65-2.89 1.87-1.18.21-2.39-.05-3.37-.73l-6.89-4.76c-3.76 3.2-7.89 5.86-12.34 7.97l1.51 8.22c.21 1.18-.05 2.39-.73 3.37-.68.98-1.72 1.65-2.89 1.87l-20.33 3.72c-.28.05-.55.07-.82.07z"/><path d="M200.17 53.21c-.95 0-1.91.08-2.85.26-8.52 1.55-14.18 9.75-12.62 18.27 1.37 7.46 7.85 12.87 15.42 12.87.95 0 1.91-.08 2.85-.25 8.52-1.56 14.18-9.76 12.62-18.27-1.36-7.47-7.85-12.88-15.42-12.88zm-.05 40.4c-11.92 0-22.12-8.52-24.27-20.26-2.45-13.39 6.45-26.29 19.85-28.74 1.48-.27 2.98-.4 4.47-.4 11.92 0 22.13 8.52 24.27 20.26 2.45 13.39-6.45 26.29-19.85 28.74-1.48.27-2.98.4-4.47.4z"/></svg>