<svg width="116" height="115" viewBox="0 0 116 115" xmlns="http://www.w3.org/2000/svg"><path d="M7.42 108.12h85.51v-5.458c0-5.83-4.74-10.766-10.56-11.002-.16-.006-.32-.024-.48-.055l-.87-.167c-.59-.12-1.23-.25-1.88-.387-3.81-.8-6.88-1.62-9.11-2.43-1.42-.51-2.52-1.02-3.36-1.56-.91-.58-1.87-1.21-2.72-1.85-.68-.5-1.24-.98-1.72-1.45-.38-.37-.71-.74-1-1.13-1.13-1.49-1.67-3.18-1.67-5.18 0-.84.14-1.74.43-2.76.24-.84.57-1.74 1.03-2.74.21-.46.43-.93.67-1.4.19-.38.34-.68.5-.97.05-.09.1-.17.15-.26.33-.51.65-1.03.96-1.56l.22-.38c.27-.47.53-.95.79-1.43l.11-.21c2.4-4.64 4.13-9.92 4.75-14.48l.01-.14c.05-.38.22-2.65.23-3.1v-6.87C69.41 31.14 61.27 23 51.26 23H49.1c-1.23 0-2.46.127-3.65.37-1.16.24-2.3.6-3.39 1.06-.27.117-.54.24-.8.366C35 27.8 30.95 34.22 30.95 41.12V48c.01.44.18 2.713.23 3.11 0 .01.01.1.01.113.62 4.57 2.35 9.847 4.75 14.49l.12.218c.25.48.51.96.77 1.43.01 0 .05.09.06.09l.17.3c.31.54.63 1.06.96 1.57.05.09.1.17.15.26.46.88.84 1.65 1.17 2.38.28.61.52 1.2.72 1.76.5 1.41.74 2.64.74 3.75 0 1.15-.17 2.17-.53 3.12-.81 2.17-2.4 3.57-3.86 4.65-.86.64-1.86 1.29-2.72 1.85-1.88 1.21-5.29 2.37-10.45 3.55-1.48.34-3.09.68-4.77 1-.16.03-.32.05-.48.06-2.46.1-4.84 1.05-6.72 2.67-.53.45-1.01.96-1.44 1.49-.88 1.1-1.53 2.33-1.93 3.66-.32 1.03-.48 2.1-.48 3.19v5.46zm88.76 6.5H4.17c-1.79 0-3.25-1.456-3.25-3.25v-8.708c0-1.725.26-3.434.76-5.076.64-2.122 1.68-4.082 3.07-5.826.68-.852 1.45-1.645 2.27-2.356 2.92-2.518 6.62-4.013 10.45-4.225 1.52-.3 2.98-.61 4.32-.91 5.91-1.36 7.83-2.33 8.38-2.68.78-.5 1.66-1.08 2.36-1.6 1.24-.93 1.54-1.4 1.65-1.71.08-.22.12-.5.12-.85 0-.2-.05-.67-.37-1.58-.14-.39-.31-.82-.51-1.26-.26-.58-.57-1.2-.93-1.9-.36-.55-.7-1.12-1.04-1.69l-.21-.38c-.35-.62-.65-1.16-.94-1.71l-.14-.26c-2.73-5.28-4.7-11.33-5.41-16.6 0-.02-.01-.11-.02-.13-.08-.63-.28-3.28-.28-3.98V41.1c0-9.383 5.49-18.1 13.98-22.204.36-.175.72-.34 1.09-.497 1.48-.64 3.04-1.12 4.62-1.45 1.62-.34 3.29-.51 4.96-.51h2.16c13.59 0 24.65 11.05 24.65 24.64v6.87c0 .69-.2 3.34-.28 3.95l-.02.15c-.71 5.27-2.69 11.32-5.42 16.6l-.09.17c-.33.63-.63 1.17-.94 1.71l-.25.44c-.34.57-.68 1.14-1.04 1.69-.11.22-.23.44-.34.67-.23.46-.42.84-.59 1.23-.31.69-.55 1.31-.7 1.83-.16.56-.18.87-.18.99 0 .73.16 1.01.36 1.27.1.13.22.27.37.41.26.26.6.54 1.04.87.7.52 1.58 1.1 2.36 1.59.23.15.81.47 2.04.91 1.93.69 4.79 1.45 8.26 2.18.62.13 1.23.25 1.79.37l.61.12c9.3.51 16.54 8.14 16.54 17.48v8.71c0 1.79-1.45 3.25-3.25 3.25zm16.33-91.38H80.93c-1.79 0-3.25-1.455-3.25-3.25s1.46-3.25 3.25-3.25h31.58c1.79 0 3.25 1.455 3.25 3.25s-1.46 3.25-3.25 3.25"/><path d="M96.72 39.027c-1.79 0-3.25-1.455-3.25-3.25V4.203c0-1.795 1.46-3.25 3.25-3.25 1.8 0 3.25 1.455 3.25 3.25v31.574c0 1.795-1.45 3.25-3.25 3.25"/></svg>