<svg width="109" height="118" viewBox="0 0 109 118" xmlns="http://www.w3.org/2000/svg"><path d="M60.9 25.97H49.12c-1.8 0-3.25-1.454-3.25-3.25 0-1.794 1.45-3.25 3.25-3.25H60.9c1.8 0 3.25 1.456 3.25 3.25 0 1.796-1.45 3.25-3.25 3.25"/><path d="M104.79 117.217H4.24c-1.8 0-3.25-1.455-3.25-3.25V22.72c0-1.794 1.45-3.25 3.25-3.25H17.3c1.8 0 3.25 1.456 3.25 3.25 0 1.796-1.45 3.25-3.25 3.25H7.49v84.747h94.05V25.97h-8.91c-1.79 0-3.25-1.454-3.25-3.25 0-1.794 1.46-3.25 3.25-3.25h12.16c1.8 0 3.25 1.456 3.25 3.25v91.247c0 1.795-1.45 3.25-3.25 3.25"/><path d="M33.93 6.707c-1.48 0-2.68 1.203-2.68 2.683v16.548c0 1.48 1.2 2.685 2.68 2.685 1.48 0 2.69-1.204 2.69-2.685V9.39c0-1.48-1.21-2.683-2.69-2.683zm0 28.416c-5.06 0-9.18-4.12-9.18-9.185V9.39c0-5.064 4.12-9.183 9.18-9.183 5.07 0 9.19 4.12 9.19 9.183v16.548c0 5.065-4.12 9.185-9.19 9.185zM76.39 6.707c-1.48 0-2.68 1.203-2.68 2.683v16.548c0 1.48 1.2 2.685 2.68 2.685 1.48 0 2.68-1.204 2.68-2.685V9.39c0-1.48-1.2-2.683-2.68-2.683zm0 28.416c-5.07 0-9.18-4.12-9.18-9.185V9.39c0-5.064 4.11-9.183 9.18-9.183 5.06 0 9.18 4.12 9.18 9.183v16.548c0 5.065-4.12 9.185-9.18 9.185zM22.96 53.475h3.62v-3.622h-3.62v3.622zm6.87 6.5H19.71c-1.8 0-3.25-1.455-3.25-3.25v-10.12c0-1.797 1.45-3.252 3.25-3.252h10.12c1.79 0 3.25 1.455 3.25 3.25v10.122c0 1.795-1.46 3.25-3.25 3.25zm21.9-6.5h3.63v-3.622h-3.63v3.622zm6.88 6.5H48.48c-1.79 0-3.25-1.455-3.25-3.25v-10.12c0-1.797 1.46-3.252 3.25-3.252h10.13c1.79 0 3.25 1.455 3.25 3.25v10.122c0 1.795-1.46 3.25-3.25 3.25zm21.9-6.5h3.62v-3.622h-3.62v3.622zm6.87 6.5H77.26c-1.79 0-3.25-1.455-3.25-3.25v-10.12c0-1.797 1.46-3.252 3.25-3.252h10.12c1.8 0 3.25 1.455 3.25 3.25v10.122c0 1.795-1.45 3.25-3.25 3.25zm-64.42 12.74h3.62v-3.62h-3.62v3.62zm6.87 6.5H19.71c-1.8 0-3.25-1.455-3.25-3.25v-10.12c0-1.796 1.45-3.25 3.25-3.25h10.12c1.79 0 3.25 1.454 3.25 3.25v10.12c0 1.795-1.46 3.25-3.25 3.25zm21.9-6.5h3.63v-3.62h-3.63v3.62zm6.88 6.5H48.48c-1.79 0-3.25-1.455-3.25-3.25v-10.12c0-1.796 1.46-3.25 3.25-3.25h10.13c1.79 0 3.25 1.454 3.25 3.25v10.12c0 1.795-1.46 3.25-3.25 3.25zm21.9-6.5h3.62v-3.62h-3.62v3.62zm6.87 6.5H77.26c-1.79 0-3.25-1.455-3.25-3.25v-10.12c0-1.796 1.46-3.25 3.25-3.25h10.12c1.8 0 3.25 1.454 3.25 3.25v10.12c0 1.795-1.45 3.25-3.25 3.25zm-64.42 12.74h3.62v-3.62h-3.62v3.62zm6.87 6.5H19.71c-1.8 0-3.25-1.455-3.25-3.25v-10.12c0-1.796 1.45-3.25 3.25-3.25h10.12c1.79 0 3.25 1.454 3.25 3.25v10.12c0 1.795-1.46 3.25-3.25 3.25zm21.9-6.5h3.63v-3.62h-3.63v3.62zm6.88 6.5H48.48c-1.79 0-3.25-1.455-3.25-3.25v-10.12c0-1.796 1.46-3.25 3.25-3.25h10.13c1.79 0 3.25 1.454 3.25 3.25v10.12c0 1.795-1.46 3.25-3.25 3.25zm21.9-6.5h3.62v-3.62h-3.62v3.62zm6.87 6.5H77.26c-1.79 0-3.25-1.455-3.25-3.25v-10.12c0-1.796 1.46-3.25 3.25-3.25h10.12c1.8 0 3.25 1.454 3.25 3.25v10.12c0 1.795-1.45 3.25-3.25 3.25z"/></svg>