<svg width="231" height="271" viewBox="0 0 231 271" xmlns="http://www.w3.org/2000/svg"><path d="M225.1 71.597h-62.6c-2.48 0-4.5-2.015-4.5-4.5V4.5c0-2.486 2.02-4.5 4.5-4.5 2.49 0 4.5 2.014 4.5 4.5v58.097h58.1c2.48 0 4.5 2.014 4.5 4.5 0 2.485-2.02 4.5-4.5 4.5"/><path d="M9 262.124h212.05V68.994L161.05 9H9v253.124zm216.55 9H4.5c-2.48 0-4.5-2.015-4.5-4.5V4.5C0 2.015 2.02 0 4.5 0h158.42c1.19 0 2.34.474 3.18 1.318l62.63 62.63c.84.843 1.32 1.988 1.32 3.18v199.496c0 2.485-2.02 4.5-4.5 4.5z"/><path d="M101.99 119H45.5c-2.48 0-4.5-2.015-4.5-4.5s2.02-4.5 4.5-4.5h56.49c2.48 0 4.5 2.015 4.5 4.5s-2.02 4.5-4.5 4.5m82.99 0H128.5c-2.49 0-4.5-2.015-4.5-4.5s2.01-4.5 4.5-4.5h56.48c2.49 0 4.5 2.015 4.5 4.5s-2.01 4.5-4.5 4.5m-82.99 22H45.5c-2.48 0-4.5-2.014-4.5-4.5 0-2.485 2.02-4.5 4.5-4.5h56.49c2.48 0 4.5 2.015 4.5 4.5 0 2.486-2.02 4.5-4.5 4.5m82.99 0H128.5c-2.49 0-4.5-2.014-4.5-4.5 0-2.485 2.01-4.5 4.5-4.5h56.48c2.49 0 4.5 2.015 4.5 4.5 0 2.486-2.01 4.5-4.5 4.5m-82.99 22H45.5c-2.48 0-4.5-2.014-4.5-4.5 0-2.485 2.02-4.5 4.5-4.5h56.49c2.48 0 4.5 2.015 4.5 4.5 0 2.486-2.02 4.5-4.5 4.5m82.99 0H128.5c-2.49 0-4.5-2.014-4.5-4.5 0-2.485 2.01-4.5 4.5-4.5h56.48c2.49 0 4.5 2.015 4.5 4.5 0 2.486-2.01 4.5-4.5 4.5m-82.99 22H45.5c-2.48 0-4.5-2.015-4.5-4.5 0-2.486 2.02-4.5 4.5-4.5h56.49c2.48 0 4.5 2.014 4.5 4.5 0 2.485-2.02 4.5-4.5 4.5m82.99 0H128.5c-2.49 0-4.5-2.015-4.5-4.5 0-2.486 2.01-4.5 4.5-4.5h56.48c2.49 0 4.5 2.014 4.5 4.5 0 2.485-2.01 4.5-4.5 4.5"/></svg>