<svg width="100" height="117" viewBox="0 0 100 117" xmlns="http://www.w3.org/2000/svg"><path d="M96.106 33.496H70.024c-1.795 0-3.25-1.455-3.25-3.25V4.164c0-1.795 1.455-3.25 3.25-3.25 1.794 0 3.25 1.455 3.25 3.25v22.832h22.832c1.795 0 3.25 1.455 3.25 3.25s-1.455 3.25-3.25 3.25"/><path d="M7.254 110.132h85.6V31.605l-24.19-24.19H7.254V110.13zm88.852 6.5H4.003c-1.795 0-3.25-1.455-3.25-3.25V4.164c0-1.795 1.455-3.25 3.25-3.25H70.01c.87 0 1.69.342 2.3.95l26.1 26.097c.61.61.95 1.44.95 2.3v83.13c0 1.8-1.45 3.25-3.25 3.25z"/><path d="M44.676 55.66H21.14c-1.794 0-3.25-1.455-3.25-3.25s1.456-3.25 3.25-3.25h23.536c1.795 0 3.25 1.455 3.25 3.25s-1.455 3.25-3.25 3.25m34.782 0H55.923c-1.795 0-3.25-1.455-3.25-3.25s1.455-3.25 3.25-3.25h23.535c1.794 0 3.25 1.455 3.25 3.25s-1.456 3.25-3.25 3.25M44.676 68.094H21.14c-1.794 0-3.25-1.455-3.25-3.25s1.456-3.25 3.25-3.25h23.536c1.795 0 3.25 1.455 3.25 3.25s-1.455 3.25-3.25 3.25m34.782 0H55.923c-1.795 0-3.25-1.455-3.25-3.25s1.455-3.25 3.25-3.25h23.535c1.794 0 3.25 1.455 3.25 3.25s-1.456 3.25-3.25 3.25M44.676 80.527H21.14c-1.794 0-3.25-1.455-3.25-3.25s1.456-3.25 3.25-3.25h23.536c1.795 0 3.25 1.455 3.25 3.25s-1.455 3.25-3.25 3.25m34.782 0H55.923c-1.795 0-3.25-1.455-3.25-3.25s1.455-3.25 3.25-3.25h23.535c1.794 0 3.25 1.455 3.25 3.25s-1.456 3.25-3.25 3.25"/></svg>