<svg width="100" height="117" viewBox="0 0 100 117" xmlns="http://www.w3.org/2000/svg"><path d="M74.264 35.256h-48.63c-1.796 0-3.25-1.455-3.25-3.25s1.454-3.25 3.25-3.25h48.63c1.795 0 3.25 1.455 3.25 3.25s-1.455 3.25-3.25 3.25m0 26.917h-48.63c-1.796 0-3.25-1.455-3.25-3.25 0-1.796 1.454-3.25 3.25-3.25h48.63c1.795 0 3.25 1.454 3.25 3.25 0 1.795-1.455 3.25-3.25 3.25m0 26.917h-48.63c-1.796 0-3.25-1.456-3.25-3.25 0-1.797 1.454-3.252 3.25-3.252h48.63c1.795 0 3.25 1.455 3.25 3.25 0 1.796-1.455 3.25-3.25 3.25"/><path d="M6.99 110.238h85.916V7.148H6.99v103.09zm89.17 6.5H3.74c-1.794 0-3.25-1.455-3.25-3.25V3.898c0-1.794 1.456-3.25 3.25-3.25h92.42c1.79 0 3.25 1.456 3.25 3.25v109.59c0 1.795-1.46 3.25-3.25 3.25z"/></svg>