<svg width="153" height="28" viewBox="0 0 153 28" xmlns="http://www.w3.org/2000/svg"><path d="M23.158 19.02H8.018c.136 1.214.463 2.117.983 2.71.73.854 1.69 1.28 2.86 1.28.75 0 1.45-.185 2.12-.556.41-.235.85-.65 1.32-1.243l7.44.69c-1.13 1.98-2.51 3.4-4.12 4.26-1.61.86-3.91 1.29-6.92 1.29-2.61 0-4.66-.37-6.16-1.1-1.5-.73-2.74-1.9-3.72-3.5-.99-1.61-1.48-3.5-1.48-5.66 0-3.08.99-5.57 2.96-7.47C5.27 7.81 8 6.86 11.47 6.86c2.82 0 5.05.423 6.68 1.28 1.64.85 2.88 2.09 3.73 3.71.86 1.62 1.28 3.73 1.28 6.325v.853zm-7.68-3.617c-.15-1.46-.543-2.505-1.18-3.135-.637-.63-1.475-.947-2.514-.947-1.2 0-2.158.48-2.876 1.43-.457.6-.748 1.48-.872 2.66h7.44zM27.292-.2h20.78v5.844H35.736v4.75h10.54v5.492h-10.54V27h-8.442V-.2zM50 17.202c0-3.006 1.015-5.483 3.043-7.43 2.03-1.95 4.77-2.923 8.22-2.923 3.946 0 6.927 1.14 8.943 3.43 1.62 1.84 2.43 4.11 2.43 6.81 0 3.03-1.004 5.51-3.014 7.45-2.01 1.93-4.79 2.9-8.34 2.9-3.167 0-5.728-.81-7.682-2.41-2.4-1.99-3.6-4.6-3.6-7.83zm7.57-.018c0 1.756.356 3.055 1.068 3.896.71.842 1.605 1.263 2.68 1.263 1.09 0 1.983-.415 2.682-1.243.7-.83 1.048-2.16 1.048-3.99 0-1.707-.352-2.978-1.057-3.813-.7-.835-1.57-1.252-2.61-1.252-1.1 0-2.01.424-2.72 1.27-.72.848-1.07 2.138-1.07 3.87zm18.905-9.89h7.07v3.228c.68-1.397 1.38-2.36 2.105-2.885.724-.526 1.617-.788 2.68-.788 1.114 0 2.333.34 3.656 1.04l-2.337 5.38c-.9-.38-1.6-.56-2.12-.56-.99 0-1.76.41-2.3 1.22-.78 1.15-1.17 3.3-1.17 6.45V27h-7.59V7.295zm18.867 0h7.05v2.876c1.015-1.2 2.038-2.052 3.07-2.56 1.034-.507 2.28-.76 3.74-.76 1.57 0 2.814.278 3.73.835.915.556 1.663 1.385 2.245 2.486 1.187-1.28 2.27-2.16 3.247-2.62.977-.46 2.183-.69 3.618-.69 2.115 0 3.766.63 4.954 1.89 1.187 1.26 1.78 3.22 1.78 5.89V27h-7.57V15.774c0-.89-.172-1.552-.52-1.985-.506-.68-1.137-1.02-1.89-1.02-.892 0-1.61.32-2.154.96-.544.64-.816 1.67-.816 3.1V27h-7.57V16.146c0-.866-.05-1.454-.15-1.763-.16-.495-.438-.894-.834-1.197-.396-.303-.86-.455-1.39-.455-.867 0-1.578.33-2.135.99-.557.66-.835 1.73-.835 3.23V27h-7.57V7.295zm36.735 14.25l7.496-.705c.31.89.742 1.52 1.3 1.91.555.38 1.297.57 2.225.57 1.015 0 1.8-.22 2.357-.65.433-.32.65-.73.65-1.21 0-.55-.285-.97-.854-1.26-.4-.21-1.49-.47-3.24-.78-2.62-.46-4.44-.89-5.46-1.27-1.02-.39-1.88-1.05-2.58-1.98-.7-.93-1.04-1.99-1.04-3.18 0-1.3.38-2.42 1.13-3.36.76-.94 1.8-1.64 3.12-2.11 1.32-.46 3.1-.7 5.33-.7 2.35 0 4.09.18 5.21.54 1.12.36 2.06.91 2.81 1.67.75.75 1.37 1.77 1.87 3.06l-7.16.7c-.19-.63-.49-1.1-.93-1.39-.59-.4-1.31-.6-2.15-.6-.85 0-1.47.15-1.86.45-.39.3-.58.67-.58 1.1 0 .48.25.84.75 1.09.5.25 1.57.47 3.23.67 2.51.28 4.38.68 5.6 1.18 1.23.51 2.16 1.23 2.81 2.17.65.94.98 1.97.98 3.1 0 1.14-.34 2.24-1.03 3.32-.68 1.08-1.77 1.93-3.24 2.57-1.48.64-3.49.95-6.04.95-3.6 0-6.17-.51-7.69-1.54-1.53-1.03-2.51-2.49-2.94-4.38z" fill-rule="evenodd"/></svg>