<svg width="116" height="103" viewBox="0 0 116 103" xmlns="http://www.w3.org/2000/svg"><path d="M112.545 102.863H3.985c-1.796 0-3.25-1.455-3.25-3.25V62.73c0-1.794 1.454-3.25 3.25-3.25 1.794 0 3.25 1.456 3.25 3.25v33.632h102.06V62.73c0-1.794 1.455-3.25 3.25-3.25s3.25 1.456 3.25 3.25v36.883c0 1.795-1.455 3.25-3.25 3.25M58.302 46.498c-.83 0-1.657-.314-2.292-.944L43.04 32.656c-1.273-1.263-1.28-3.322-.014-4.595 1.266-1.27 3.323-1.28 4.596-.01l10.668 10.6 10.604-10.66c1.265-1.27 3.323-1.28 4.596-.01 1.273 1.27 1.28 3.33.013 4.6L60.607 45.54c-.635.64-1.47.958-2.305.958"/><path d="M58.315 46.26c-1.794 0-3.25-1.456-3.25-3.25V3.546c0-1.795 1.456-3.25 3.25-3.25 1.795 0 3.25 1.455 3.25 3.25V43.01c0 1.794-1.455 3.25-3.25 3.25M39.098 62.137c-.213 0-.43-.022-.646-.065l-17.93-3.62c-1.76-.352-2.898-2.067-2.543-3.827.35-1.76 2.06-2.898 3.82-2.543l14.74 2.976 2.97-14.745c.35-1.758 2.07-2.897 3.83-2.542 1.76.36 2.9 2.07 2.54 3.83l-3.62 17.93c-.31 1.55-1.67 2.61-3.19 2.61"/><path d="M39.027 61.99c-1.367 0-2.64-.87-3.088-2.238-.1-.274-7.33-21.363-28.62-25.973-1.76-.38-2.87-2.11-2.49-3.87.38-1.76 2.11-2.87 3.86-2.49 25.04 5.42 33.09 29.29 33.42 30.3.55 1.7-.38 3.54-2.08 4.09-.34.11-.68.16-1.01.16m38.4.14c-1.52 0-2.87-1.07-3.18-2.61l-3.61-17.9c-.36-1.76.78-3.48 2.54-3.83 1.76-.36 3.47.78 3.83 2.54l2.97 14.74 14.75-2.97c1.76-.36 3.48.78 3.83 2.54.36 1.76-.78 3.47-2.54 3.83l-17.93 3.62c-.21.04-.43.06-.64.06"/><path d="M77.502 61.99c-.333 0-.673-.052-1.007-.162-1.707-.555-2.64-2.39-2.083-4.096.33-1.013 8.38-24.885 33.416-30.305 1.755-.38 3.484.735 3.864 2.49.38 1.753-.735 3.483-2.49 3.862-21.428 4.63-28.54 25.75-28.61 25.96-.447 1.37-1.72 2.24-3.09 2.24"/></svg>