<svg width="437" height="388" viewBox="0 0 437 388" xmlns="http://www.w3.org/2000/svg"><path d="M430.81 387.87H5.597c-3.038 0-5.5-2.46-5.5-5.5V237.91c0-3.04 2.462-5.5 5.5-5.5s5.5 2.46 5.5 5.5v138.96H425.31V237.91c0-3.04 2.46-5.5 5.5-5.5s5.5 2.46 5.5 5.5v144.46c0 3.04-2.46 5.5-5.5 5.5M218.35 167.1c-1.45 0-2.85-.57-3.88-1.6l-50.8-50.51c-2.16-2.14-2.17-5.62-.02-7.78 2.14-2.15 5.62-2.16 7.77-.02l46.91 46.63 46.63-46.9c2.14-2.16 5.63-2.17 7.78-.02 2.16 2.14 2.17 5.62.02 7.78l-50.51 50.8c-1.03 1.03-2.42 1.62-3.88 1.62h-.02"/><path d="M218.4 166.16c-3.03 0-5.5-2.46-5.5-5.5V6.1c0-3.04 2.47-5.5 5.5-5.5 3.04 0 5.5 2.46 5.5 5.5v154.56c0 3.04-2.46 5.5-5.5 5.5m-75.274 62.19c-.36 0-.727-.03-1.094-.11l-70.227-14.17c-2.978-.6-4.904-3.5-4.304-6.48.61-2.98 3.51-4.9 6.48-4.3l64.84 13.08 13.09-64.83c.6-2.98 3.5-4.91 6.48-4.31 2.98.6 4.91 3.51 4.3 6.48l-14.17 70.23c-.52 2.61-2.82 4.41-5.38 4.41"/><path d="M142.855 227.78c-2.315 0-4.47-1.48-5.227-3.8-.09-.27-7.443-22.29-25.616-46.33-24.187-32-55.07-52.25-91.794-60.2-2.968-.64-4.854-3.57-4.212-6.54.643-2.97 3.57-4.86 6.54-4.21 49.2 10.65 80.714 41.03 98.485 64.64 19.2 25.5 26.75 48.27 27.06 49.23.94 2.89-.63 5.99-3.52 6.93-.56.19-1.14.28-1.7.28m150.43.57c-2.56 0-4.86-1.8-5.38-4.41l-14.18-70.23c-.6-2.97 1.33-5.88 4.31-6.48 2.98-.6 5.88 1.33 6.48 4.31l13.08 64.83 64.84-13.08c2.98-.6 5.88 1.32 6.48 4.3.6 2.98-1.33 5.88-4.31 6.48l-70.22 14.17c-.37.08-.74.11-1.1.11"/><path d="M293.55 227.78c-.56 0-1.14-.09-1.7-.28-2.89-.94-4.47-4.04-3.53-6.93.32-.96 7.87-23.73 27.06-49.23 17.77-23.61 49.28-53.99 98.48-64.64 2.97-.65 5.9 1.24 6.54 4.21.65 2.97-1.24 5.9-4.21 6.54-87.94 19.04-117.12 105.66-117.41 106.53-.75 2.32-2.91 3.8-5.23 3.8"/></svg>