<svg width="145" height="31" viewBox="0 0 145 31" xmlns="http://www.w3.org/2000/svg"><path d="M0 2.308h15.04v3.025H3.647v9.28H14.17v2.984H3.647v12.636H0V2.308m21.09 17.94c0 4.392 2.487 7.708 6.05 7.708 3.48 0 6.09-3.275 6.09-7.79 0-3.398-1.697-7.666-6.007-7.666-4.268 0-6.132 3.977-6.132 7.748m15.88-.207c0 7.42-5.18 10.65-9.99 10.65-5.38 0-9.61-3.97-9.61-10.31 0-6.67 4.43-10.6 9.94-10.6 5.76 0 9.66 4.19 9.66 10.28m4.6-3.6c0-2.36-.04-4.39-.16-6.26h3.19l.17 3.98h.13c.91-2.69 3.15-4.39 5.59-4.39.38 0 .67.04 1 .09v3.44c-.37-.08-.74-.08-1.24-.08-2.57 0-4.39 1.91-4.89 4.64-.08.5-.12 1.12-.12 1.7v10.69h-3.65v-13.8m13.72-.83c0-2.11-.08-3.77-.16-5.43h3.19l.17 3.28h.13c1.12-1.91 2.99-3.69 6.34-3.69 2.69 0 4.76 1.66 5.64 4.02h.09c.63-1.16 1.45-1.99 2.28-2.61 1.2-.91 2.49-1.41 4.4-1.41 2.69 0 6.63 1.74 6.63 8.7v11.77h-3.6V18.92c0-3.895-1.45-6.173-4.35-6.173-2.11 0-3.69 1.532-4.35 3.272-.17.54-.29 1.16-.29 1.82v12.39h-3.56V18.22c0-3.19-1.41-5.47-4.18-5.47-2.24 0-3.93 1.824-4.51 3.647-.21.498-.29 1.16-.29 1.78v12.06H55.3v-14.63M116.264 20c-3.977-.082-8.494.622-8.494 4.517 0 2.403 1.58 3.48 3.4 3.48 2.65 0 4.35-1.657 4.93-3.356.13-.41.17-.82.17-1.16V20zm3.523 5.428c0 1.74.08 3.44.29 4.807h-3.28l-.29-2.528h-.127c-1.12 1.575-3.27 2.983-6.13 2.983-4.06 0-6.14-2.86-6.14-5.76 0-4.848 4.31-7.5 12.058-7.458v-.413c0-1.62-.457-4.65-4.56-4.6-1.905 0-3.854.53-5.263 1.49l-.827-2.45c1.655-1.04 4.1-1.74 6.63-1.74 6.13 0 7.623 4.18 7.623 8.16v7.5zm9.48-3.232c0 .456.04.91.165 1.327.663 2.527 2.82 4.267 5.47 4.267 3.854 0 6.09-3.107 6.09-7.708 0-4.018-2.07-7.458-6.007-7.458-2.445 0-4.764 1.74-5.51 4.477-.125.46-.208.95-.208 1.54v3.56zm-3.6-21.38h3.604V13.41h.09c1.29-2.236 3.61-3.645 6.84-3.645 5.02 0 8.5 4.144 8.5 10.194 0 7.16-4.55 10.73-9.03 10.73-2.9 0-5.22-1.12-6.75-3.73h-.08l-.2 3.27h-3.11c.08-1.37.17-3.4.17-5.18V.81zm-20.324 1.49H84.67v3.067h10.05l-4.81 6.137h3.272v18.725h3.652V11.51h3.27L95.3 5.373h10.05V2.307"/></svg>