<svg xmlns="http://www.w3.org/2000/svg" width="270" height="269" viewBox="0 0 270 269"><path d="M9.64 259.463H261v-20.137c0-18.984-15.43-35.053-34.4-35.822-.22-.01-.45-.034-.67-.077-.77-.15-1.58-.306-2.42-.472-1.66-.33-3.43-.69-5.27-1.078-10.57-2.238-19.03-4.493-25.16-6.7-3.68-1.33-6.48-2.623-8.55-3.954-2.39-1.534-5.13-3.332-7.44-5.047-1.75-1.305-3.18-2.51-4.38-3.688-.91-.898-1.68-1.777-2.37-2.69-2.58-3.42-3.78-7.183-3.78-11.84 0-1.94.34-4.08 1.04-6.552.61-2.174 1.49-4.5 2.67-7.11.57-1.267 1.18-2.545 1.81-3.796l.12-.234c.41-.815.83-1.63 1.26-2.444.07-.123.14-.242.21-.357.87-1.34 1.78-2.81 2.84-4.615.16-.274.32-.553.47-.834l.18-.307c.8-1.4 1.57-2.81 2.3-4.19l.33-.63c7.03-13.6 12.11-29.09 13.92-42.51l.04-.39c.19-1.41.68-8.26.68-9.4V65.16c0-30.9-25.14-56.042-56.04-56.042h-6.13c-3.79 0-7.57.382-11.26 1.14-3.58.74-7.11 1.84-10.49 3.277-.83.353-1.67.73-2.48 1.124-19.33 9.35-31.81 29.17-31.81 50.5v19.45c0 1.14.49 7.99.68 9.4l.04.36c1.81 13.42 6.88 28.91 13.92 42.5l.34.64c.73 1.4 1.51 2.81 2.29 4.17l.16.28c.16.29.33.57.49.86 1.07 1.81 1.97 3.28 2.84 4.61.07.11.14.23.21.36 1.26 2.39 2.3 4.51 3.19 6.47.72 1.59 1.35 3.15 1.87 4.61 1.24 3.47 1.84 6.43 1.84 9.04 0 2.66-.4 5.01-1.21 7.18-1.47 3.96-4.26 7.26-9.33 11.03-2.3 1.72-5.05 3.51-7.43 5.05-4.84 3.11-14.02 6.18-28.06 9.4-4.15.95-8.64 1.89-13.35 2.79-.22.05-.44.07-.66.08-8.01.33-15.79 3.41-21.9 8.68-1.7 1.47-3.27 3.09-4.67 4.84-2.86 3.57-4.97 7.59-6.3 11.93-1.02 3.35-1.54 6.84-1.54 10.37v20.14zm255.86 9H5.14c-2.48 0-4.5-2.014-4.5-4.5v-24.637c0-4.418.65-8.79 1.93-12.996 1.66-5.434 4.31-10.453 7.88-14.922 1.74-2.18 3.7-4.215 5.82-6.04 7.56-6.52 17.16-10.362 27.07-10.842 4.48-.864 8.75-1.76 12.7-2.667 16.83-3.86 23.02-6.8 25.21-8.21 2.26-1.45 4.84-3.14 6.93-4.7 3.61-2.7 5.43-4.71 6.27-6.96.43-1.15.64-2.47.64-4.04 0-1.55-.45-3.58-1.32-6.03-.44-1.23-.97-2.55-1.59-3.92-.79-1.75-1.73-3.65-2.86-5.81-.91-1.41-1.85-2.94-2.94-4.8-.19-.32-.37-.64-.55-.96l-.16-.27c-.83-1.46-1.65-2.96-2.45-4.47l-.36-.69c-7.49-14.47-12.9-31.03-14.84-45.43l-.05-.4c-.22-1.69-.75-8.93-.75-10.58V65.16c0-24.757 14.48-47.76 36.89-58.6.94-.456 1.91-.895 2.88-1.305 3.93-1.668 8.03-2.95 12.2-3.81C123.47.565 127.86.12 132.26.12h6.13c35.86 0 65.04 29.177 65.04 65.042v19.453c0 1.645-.53 8.883-.75 10.564l-.05.41c-1.95 14.4-7.36 30.96-14.85 45.43l-.35.66c-.78 1.49-1.61 3-2.46 4.49l-.17.29c-.17.31-.35.61-.53.92-1.09 1.85-2.03 3.39-2.94 4.8-.37.71-.74 1.42-1.1 2.13l-.1.2c-.58 1.15-1.14 2.31-1.66 3.47-.98 2.17-1.73 4.14-2.21 5.85-.47 1.64-.7 3.02-.7 4.1 0 2.71.57 4.57 1.97 6.42.41.55.91 1.11 1.5 1.69.9.89 2.02 1.83 3.44 2.88 2.08 1.55 4.67 3.24 6.93 4.69 1.47.95 3.74 1.98 6.74 3.06 5.73 2.07 13.8 4.21 23.97 6.36 1.79.38 3.52.73 5.15 1.05.7.14 1.39.27 2.05.4 23.97 1.15 42.69 20.76 42.69 44.8v24.63c0 2.48-2.01 4.5-4.5 4.5z"/></svg>