<svg xmlns="http://www.w3.org/2000/svg" width="436" height="435" viewBox="0 0 436 435"><path d="M11 423.88h413.91v-34.7c0-15.63-6.014-30.47-16.933-41.81-10.89-11.3-25.445-17.87-40.983-18.5-.274-.01-.546-.04-.815-.09-1.27-.25-2.59-.5-3.94-.77-2.72-.54-5.6-1.13-8.58-1.76-17.17-3.63-30.91-7.29-40.82-10.86-5.89-2.12-10.33-4.18-13.59-6.27-3.86-2.49-8.31-5.4-12.03-8.17-2.79-2.07-5.06-3.99-6.96-5.85-1.42-1.4-2.63-2.77-3.7-4.19-3.96-5.24-5.8-11.03-5.8-18.21 0-2.99.53-6.33 1.62-10.19.98-3.46 2.37-7.17 4.26-11.34.93-2.06 1.91-4.12 2.93-6.13l.17-.36c.68-1.34 1.36-2.67 2.06-3.98.08-.15.16-.3.25-.44 1.44-2.22 2.93-4.63 4.67-7.6.27-.47.55-.95.82-1.43l.25-.45c1.31-2.29 2.58-4.61 3.78-6.9l.54-1.02c11.57-22.37 19.92-47.88 22.91-69.98l.07-.62c.28-2.19 1.12-13.45 1.12-15.58v-31.74c0-51.45-41.86-93.31-93.31-93.31h-10c-6.3 0-12.61.64-18.74 1.9-5.97 1.23-11.85 3.07-17.47 5.46-1.4.59-2.79 1.22-4.13 1.87-32.18 15.57-52.96 48.57-52.96 84.08v31.74c0 2.13.83 13.4 1.12 15.59l.07.61c2.98 22.1 11.33 47.6 22.9 69.97l.55 1.05c1.21 2.3 2.48 4.62 3.78 6.88l.27.47c.27.47.53.94.81 1.41 1.75 2.98 3.23 5.39 4.67 7.6.09.14.18.29.25.44 2.04 3.86 3.73 7.29 5.16 10.47 1.16 2.56 2.17 5.05 3 7.39 1.94 5.47 2.89 10.09 2.89 14.14 0 4.13-.61 7.75-1.85 11.08-2.28 6.11-6.65 11.25-14.6 17.17-3.72 2.77-8.17 5.68-12.03 8.17-7.61 4.89-22.82 9.97-45.22 15.11-6.75 1.55-14.06 3.08-21.71 4.55-.27.05-.54.08-.82.09-13.48.55-26.58 5.74-36.87 14.61-2.86 2.46-5.5 5.21-7.85 8.15-4.81 6.02-8.38 12.77-10.6 20.08-1.72 5.64-2.59 11.52-2.59 17.47v34.7zm419.41 11H5.5c-3.038 0-5.5-2.46-5.5-5.5v-40.2c0-7.04 1.033-13.99 3.07-20.68 2.635-8.64 6.85-16.63 12.532-23.74 2.775-3.47 5.892-6.71 9.262-9.61 12.063-10.4 27.384-16.52 43.187-17.25 7.39-1.42 14.43-2.9 20.94-4.39 26.35-6.05 37.24-10.76 41.73-13.65 3.71-2.38 7.96-5.16 11.41-7.73 6.22-4.63 9.36-8.16 10.87-12.19.78-2.08 1.16-4.45 1.16-7.24 0-2.73-.76-6.25-2.25-10.46-.73-2.06-1.62-4.25-2.65-6.54-1.32-2.91-2.87-6.07-4.75-9.65-1.49-2.3-3.02-4.79-4.8-7.83-.3-.5-.59-1.01-.88-1.52l-.26-.46c-1.36-2.37-2.7-4.81-3.97-7.24l-.23-.44c-.12-.22-.23-.44-.35-.66-12.13-23.44-20.89-50.25-24.03-73.55l-.08-.64c-.35-2.71-1.22-14.37-1.22-17.03v-31.74c0-39.7 23.23-76.59 59.17-93.98 1.51-.73 3.06-1.43 4.62-2.09 6.3-2.68 12.88-4.73 19.56-6.11C198.9 1.35 205.95.63 212.99.63h10.004c57.51 0 104.3 46.79 104.3 104.31v31.74c0 2.65-.863 14.3-1.216 17.01l-.08.66c-3.147 23.31-11.91 50.12-24.04 73.56-.11.21-.224.43-.34.64l-.23.43c-1.26 2.42-2.6 4.86-3.98 7.26l-.244.43c-.29.52-.59 1.04-.88 1.55-1.78 3.03-3.31 5.52-4.805 7.83-.63 1.19-1.24 2.38-1.85 3.58l-.17.36c-.94 1.87-1.86 3.79-2.73 5.71-1.67 3.67-2.87 6.88-3.7 9.81-.82 2.87-1.21 5.23-1.21 7.19 0 4.8 1.07 8.26 3.58 11.59.74.98 1.6 1.95 2.63 2.97 1.53 1.51 3.43 3.1 5.81 4.87 3.44 2.57 7.7 5.35 11.4 7.73 2.52 1.63 6.35 3.37 11.37 5.18 9.44 3.4 22.69 6.92 39.37 10.45 2.93.62 5.76 1.2 8.43 1.73 1.19.23 2.36.46 3.48.68 18.22.84 35.27 8.59 48.04 21.84 12.9 13.4 20.01 30.95 20.01 49.44v40.2c0 3.04-2.47 5.5-5.5 5.5z"/></svg>