<svg width="145" height="48" viewBox="0 0 145 48" xmlns="http://www.w3.org/2000/svg"><title>Slice 1</title><g fill="none" fill-rule="evenodd"><path d="M72.964 37.892s3.833-27 19.333-26c15.5 1 30.5 20.5 32.333 35h-10.5s25.666-9 29-25.833C146.464 4.22 112.305 1.7 112.305 1.7s-22.674.35-31.174 9.184-8.16 27-8.16 27z" stroke="#FFF" stroke-width="2"/><path d="M9.282 15.5V6.162H7.294v5.866L2.968 6.162H.924V15.5h1.988V9.41l4.452 6.09h1.918zm8.496 0v-1.75h-4.62v-2.114h4.522v-1.75h-4.522V7.912h4.62v-1.75H11.17V15.5h6.608zm10.848 0l2.66-9.338h-2.24l-1.624 6.748-1.764-6.748h-1.554l-1.778 6.748-1.638-6.748h-2.226l2.674 9.338h2.114l1.624-6.412 1.638 6.412h2.114zM7.7 30.5v-1.75H3.192l4.41-5.992v-1.596H.588v1.75h4.41L.588 28.89v1.61H7.7zm8.16 0v-1.75h-4.62v-2.114h4.522v-1.75H11.24v-1.974h4.62v-1.75H9.252V30.5h6.608zm10.302 0l-3.598-9.338h-2.492L16.46 30.5h2.268l.588-1.582h4.004l.574 1.582h2.268zm-3.388-3.332h-2.912l1.456-4.018 1.456 4.018zM33.006 30.5v-1.75h-3.948v-7.588H27.07V30.5h5.936zm10.134 0l-3.598-9.338H37.05L33.438 30.5h2.268l.588-1.582h4.004l.574 1.582h2.268zm-3.388-3.332H36.84l1.456-4.018 1.456 4.018zM52.406 30.5v-9.338h-1.988v5.866l-4.326-5.866h-2.044V30.5h1.988v-6.09l4.452 6.09h1.918zm5.57 0c2.926 0 4.956-1.848 4.956-4.662s-2.03-4.676-4.956-4.676h-3.682V30.5h3.682zm0-1.75h-1.694v-5.838h1.694c1.918 0 2.926 1.274 2.926 2.926 0 1.582-1.078 2.912-2.926 2.912zM11.046 45.5v-9.338h-2.8l-2.268 5.642-2.268-5.642H.924V45.5h1.988v-6.538L5.544 45.5h.868l2.632-6.538V45.5h2.002zm10.596 0l-3.598-9.338h-2.492L11.94 45.5h2.268l.588-1.582H18.8l.574 1.582h2.268zm-3.388-3.332h-2.912l1.456-4.018 1.456 4.018zm7.978 3.332c2.926 0 4.956-1.848 4.956-4.662s-2.03-4.676-4.956-4.676H22.55V45.5h3.682zm0-1.75h-1.694v-5.838h1.694c1.918 0 2.926 1.274 2.926 2.926 0 1.582-1.078 2.912-2.926 2.912zM39.25 45.5v-1.75h-4.62v-2.114h4.522v-1.75H34.63v-1.974h4.62v-1.75h-6.608V45.5h6.608z" fill="#FBFCFE"/></g></svg>