<svg width="17" height="26" viewBox="0 0 17 26" xmlns="http://www.w3.org/2000/svg"><title>Slice 1</title><path d="M13.076 23.885l1.687-.93c1.127-.623 1.536-2.04.915-3.167l-1.52-2.753c-.62-1.127-2.04-1.537-3.166-.915l-.05.027c-2.52 1.237-5.535-3.96-2.966-5.375l.05-.028c1.127-.622 1.536-2.04.915-3.166L7.43 4.825c-.624-1.127-2.04-1.537-3.17-.915l-1.686.93-.12.067c-1.69.933-2.5 4.64 1.077 11.125 3.91 7.085 7.74 8.852 9.43 7.92l.12-.067zM10.584 3.62c.735.21 1.27 1.17 1.056 1.912L10.584 3.62zm2.003-2.47c1.58.52 2.786 2.682 2.38 4.313l-2.38-4.312z" fill="none"/></svg>