<svg width="271" height="272" viewBox="0 0 271 272" xmlns="http://www.w3.org/2000/svg"><title>Slice 1</title><path d="M18.05 115.35c-4.99 0-9.05 4.06-9.05 9.05v128.66c0 5.01 4.07 9.08 9.08 9.08h27.4c-11.86-10.57-18.59-25.49-18.59-41.53 0-30.73 25-55.73 55.73-55.73 30.73 0 55.73 25 55.73 55.73 0 16.04-6.67 30.89-18.46 41.45 7.02-.07 16.93-.16 23.36-.22h3.14c4.99 0 9.05-4.06 9.05-9.05v-28.31c0-.85.24-1.68.7-2.4.1-.2.41-1.07.61-1.66.51-1.43 1.04-2.92 1.81-4.06l.89-1.32c4.62-6.85 10.38-15.38 18.3-15.38 8.31 0 16.09 3.71 21.36 10.17.02.03.05.06.07.1 6.68 8.66 16.77 13.62 27.68 13.62 19.26 0 34.93-15.67 34.93-34.93 0-19.26-15.67-34.93-34.93-34.93-11.1 0-21.29 5.1-27.96 13.98-.06.08-.11.15-.17.22-5.26 6.18-12.91 9.72-20.98 9.72-7.95 0-13.71-8.56-18.35-15.43l-.83-1.23c-.77-1.14-1.31-2.64-1.82-4.09-.21-.59-.53-1.49-.68-1.76-.42-.71-.63-1.48-.63-2.3v-28.4c0-4.99-4.06-9.05-9.05-9.05h-28.31c-.85 0-1.68-.24-2.4-.7-.19-.1-1.07-.41-1.65-.61-1.44-.51-2.93-1.04-4.07-1.81l-1.32-.89c-6.85-4.62-15.38-10.38-15.38-18.3 0-8.31 3.71-16.09 10.17-21.36.03-.02.06-.05.09-.07 8.67-6.68 13.63-16.77 13.63-27.68C117.15 24.67 101.48 9 82.22 9 62.96 9 47.29 24.67 47.29 43.93c0 11.1 5.09 21.29 13.98 27.96.08.06.15.11.22.17 6.18 5.26 9.72 12.9 9.72 20.98 0 7.95-8.55 13.71-15.43 18.34l-1.23.84c-1.14.77-2.64 1.31-4.09 1.82-.6.21-1.49.53-1.77.68-.7.42-1.47.63-2.29.63H18.05zm35.51 155.79H18.08C8.11 271.14 0 263.03 0 253.06V124.45c0-10.01 8.09-18.1 18.05-18.1h27.31c.65-.28 1.36-.53 2.08-.79.66-.24 1.77-.63 2.1-.82l1.21-.82c4.01-2.7 11.46-7.72 11.46-10.88 0-5.39-2.35-10.5-6.46-14.04-11.1-8.39-17.46-21.16-17.46-35.07C38.29 19.71 58 0 82.22 0s43.93 19.71 43.93 43.93c0 13.7-6.22 26.37-17.08 34.77-4.33 3.54-6.81 8.77-6.81 14.34 0 3.14 7.43 8.15 11.42 10.84l1.35.91c.26.15 1.34.53 1.99.76.74.26 1.45.51 2.11.8h27.26c9.96 0 18.05 8.09 18.05 18.05v27.36c.28.65.53 1.36.79 2.08.23.66.63 1.77.82 2.1l.82 1.21c2.7 4 7.72 11.46 10.88 11.46 5.39 0 10.5-2.35 14.04-6.46 8.39-11.1 21.16-17.46 35.07-17.46 24.22 0 43.93 19.71 43.93 43.93 0 24.23-19.71 43.93-43.93 43.93-13.7 0-26.37-6.22-34.77-17.08-3.54-4.33-8.77-6.81-14.34-6.81-3.14 0-8.15 7.43-10.84 11.42l-.91 1.35c-.15.26-.53 1.34-.76 1.99-.26.74-.51 1.45-.8 2.11v27.21c0 10.01-8.09 18.1-18.05 18.1h-3.1c-5.2.05-31.34.29-31.71.29h-.2c-3.17-.15-5.65-2.74-5.65-5.9 0-1.44.54-2.84 1.52-3.93.02-.03.05-.06.08-.09.19-.21 1.91-2.02 3.1-3.03.07-.06.14-.11.21-.17 11.89-8.92 18.71-22.55 18.71-37.4 0-25.76-20.96-46.73-46.73-46.73-25.76 0-46.73 20.97-46.73 46.73 0 14.6 6.65 28.09 18.23 37.02.03.03.07.05.1.08 1.38 1.12 2.53 2.3 3.59 3.41.07.07.13.14.19.21.48.57 1.59 2.13 1.47 4.18-.21 3.16-2.8 5.63-5.91 5.63z" fill-rule="evenodd"/></svg>