<svg width="270" height="270" viewBox="0 0 270 270" xmlns="http://www.w3.org/2000/svg"><path d="M134.82 9C65.44 9 9 65.44 9 134.82s56.44 125.83 125.82 125.83c69.39 0 125.83-56.45 125.83-125.83S204.21 9 134.82 9zm0 260.65C60.48 269.65 0 209.17 0 134.82 0 60.48 60.48 0 134.82 0c74.35 0 134.83 60.48 134.83 134.82 0 74.35-60.48 134.83-134.83 134.83z"/><path d="M186.77 139.04H68.5c-2.49 0-4.5-2.02-4.5-4.5 0-2.49 2.01-4.5 4.5-4.5h107.41l-31.36-31.35c-1.76-1.76-1.76-4.61 0-6.37 1.76-1.76 4.61-1.76 6.37 0l39.03 39.04c1.29 1.28 1.67 3.22.98 4.9-.7 1.68-2.34 2.78-4.16 2.78"/><path d="M147.5 179.17c-1.15 0-2.3-.44-3.18-1.31-1.76-1.76-1.76-4.61 0-6.37l39.17-39.17c1.76-1.76 4.61-1.76 6.37 0 1.75 1.76 1.75 4.61 0 6.37l-39.17 39.17c-.88.87-2.03 1.31-3.19 1.31"/></svg>