<svg width="88" height="89" viewBox="0 0 88 89" xmlns="http://www.w3.org/2000/svg"><path d="M38.61 7.412c-17.46 0-31.66 14.2-31.66 31.656 0 17.455 14.2 31.657 31.66 31.657 17.45 0 31.65-14.202 31.65-31.657S56.06 7.412 38.61 7.412zm0 69.813C17.57 77.225.45 60.107.45 39.068.45 18.028 17.57.912 38.61.912c21.04 0 38.15 17.117 38.15 38.156 0 21.04-17.11 38.157-38.15 38.157z"/><path d="M84.72 88.334c-.83 0-1.67-.316-2.3-.95L60.96 65.927c-1.27-1.27-1.27-3.327 0-4.597 1.27-1.268 3.33-1.268 4.6 0l21.46 21.457c1.26 1.27 1.26 3.326 0 4.596-.64.635-1.47.95-2.3.95"/></svg>