<svg xmlns="http://www.w3.org/2000/svg" width="241" height="273" viewBox="0 0 241 273"><path d="M223.42 109.556h-51.06c-2.48 0-4.5-2.015-4.5-4.5V53.994c0-2.484 2.02-4.5 4.5-4.5 2.49 0 4.5 2.016 4.5 4.5v46.562h46.56c2.49 0 4.5 2.014 4.5 4.5 0 2.485-2.01 4.5-4.5 4.5"/><path d="M47.62 263.31h171.3V106.946l-48.45-48.45H47.62V263.31zm175.8 9H43.12c-2.49 0-4.5-2.015-4.5-4.5V53.995c0-2.484 2.01-4.5 4.5-4.5h129.22c1.19 0 2.33.476 3.18 1.32L226.6 101.9c.85.844 1.32 1.99 1.32 3.182v162.73c0 2.483-2.01 4.5-4.5 4.5z"/><path d="M34.11 252.834H23.64c-2.49 0-4.5-2.016-4.5-4.5V34.518c0-2.485 2.01-4.5 4.5-4.5h129.22c1.2 0 2.34.476 3.19 1.325l6.54 6.542c1.76 1.758 1.76 4.605.01 6.363-1.76 1.758-4.61 1.76-6.37.002L151 39.018H28.14v204.816h5.97c2.48 0 4.5 2.014 4.5 4.5 0 2.484-2.02 4.5-4.5 4.5"/><path d="M14.98 233.71H4.51c-2.48 0-4.5-2.017-4.5-4.5V15.392c0-2.485 2.02-4.5 4.5-4.5h129.22c1.21 0 2.36.48 3.2 1.333l5.68 5.674c1.76 1.75 1.76 4.6 0 6.36-1.76 1.75-4.61 1.76-6.36 0l-4.38-4.38H9.01V224.7h5.97c2.49 0 4.5 2.013 4.5 4.5 0 2.483-2.01 4.5-4.5 4.5"/><path d="M111.25 79.256H64.22c-2.49 0-4.5-2.016-4.5-4.5 0-2.485 2.01-4.5 4.5-4.5h47.03c2.49 0 4.5 2.015 4.5 4.5 0 2.484-2.01 4.5-4.5 4.5m0 16.35H64.22c-2.49 0-4.5-2.015-4.5-4.5s2.01-4.5 4.5-4.5h47.03c2.49 0 4.5 2.015 4.5 4.5s-2.01 4.5-4.5 4.5m0 16.35H64.22c-2.49 0-4.5-2.015-4.5-4.5s2.01-4.5 4.5-4.5h47.03c2.49 0 4.5 2.015 4.5 4.5s-2.01 4.5-4.5 4.5m0 24.146H64.22c-2.49 0-4.5-2.014-4.5-4.5 0-2.485 2.01-4.5 4.5-4.5h47.03c2.49 0 4.5 2.015 4.5 4.5 0 2.486-2.01 4.5-4.5 4.5m0 18.25H64.22c-2.49 0-4.5-2.014-4.5-4.5 0-2.485 2.01-4.5 4.5-4.5h47.03c2.49 0 4.5 2.015 4.5 4.5 0 2.486-2.01 4.5-4.5 4.5m0 18.252H64.22c-2.49 0-4.5-2.016-4.5-4.5 0-2.487 2.01-4.5 4.5-4.5h47.03c2.49 0 4.5 2.013 4.5 4.5 0 2.484-2.01 4.5-4.5 4.5m91.07-36.502h-70.83c-2.49 0-4.5-2.014-4.5-4.5 0-2.485 2.01-4.5 4.5-4.5h70.83c2.49 0 4.5 2.015 4.5 4.5 0 2.486-2.01 4.5-4.5 4.5m0 18.25h-70.83c-2.49 0-4.5-2.014-4.5-4.5 0-2.485 2.01-4.5 4.5-4.5h70.83c2.49 0 4.5 2.015 4.5 4.5 0 2.486-2.01 4.5-4.5 4.5m0 18.252h-70.83c-2.49 0-4.5-2.016-4.5-4.5 0-2.487 2.01-4.5 4.5-4.5h70.83c2.49 0 4.5 2.013 4.5 4.5 0 2.484-2.01 4.5-4.5 4.5m-74.06 69.86h69.56v-42.39h-69.56v42.39zm74.06 9h-78.56c-2.48 0-4.5-2.015-4.5-4.5v-51.39c0-2.487 2.02-4.5 4.5-4.5h78.56c2.49 0 4.5 2.013 4.5 4.5v51.39c0 2.485-2.01 4.5-4.5 4.5zm14.61-204.7c1.15 0 2.3.44 3.18 1.318l11.71 11.705V9.024h-50.77l11.71 11.706c1.76 1.757 1.76 4.608 0 6.365l-6.97 6.97 20.98 20.988 6.98-6.97c.87-.88 2.03-1.32 3.18-1.32zm19.39 28.387c-1.17 0-2.33-.45-3.19-1.31l-16.2-16.2-6.97 6.97c-1.76 1.76-4.61 1.76-6.37 0l-27.35-27.35c-1.76-1.76-1.76-4.6 0-6.36l6.97-6.97-16.2-16.2c-1.29-1.28-1.67-3.22-.98-4.9.7-1.68 2.34-2.78 4.16-2.78h66.13c2.48 0 4.5 2.02 4.5 4.5v66.12c0 1.83-1.1 3.47-2.78 4.16-.56.23-1.14.34-1.72.34z"/></svg>