<svg width="272" height="269" viewBox="0 0 272 269" xmlns="http://www.w3.org/2000/svg"><title>Slice 1</title><g fill-rule="evenodd"><path d="M91.53 68H57.5c-2.49 0-4.5-2.015-4.5-4.5s2.01-4.5 4.5-4.5h34.03c2.49 0 4.5 2.015 4.5 4.5s-2.01 4.5-4.5 4.5m0 17H57.5c-2.49 0-4.5-2.015-4.5-4.5 0-2.486 2.01-4.5 4.5-4.5h34.03c2.49 0 4.5 2.014 4.5 4.5 0 2.485-2.01 4.5-4.5 4.5m0 16H57.5c-2.49 0-4.5-2.015-4.5-4.5 0-2.486 2.01-4.5 4.5-4.5h34.03c2.49 0 4.5 2.014 4.5 4.5 0 2.485-2.01 4.5-4.5 4.5m0 33H57.5c-2.49 0-4.5-2.015-4.5-4.5s2.01-4.5 4.5-4.5h34.03c2.49 0 4.5 2.015 4.5 4.5s-2.01 4.5-4.5 4.5m0 18H57.5c-2.49 0-4.5-2.015-4.5-4.5 0-2.486 2.01-4.5 4.5-4.5h34.03c2.49 0 4.5 2.014 4.5 4.5 0 2.485-2.01 4.5-4.5 4.5m0 19H57.5c-2.49 0-4.5-2.015-4.5-4.5s2.01-4.5 4.5-4.5h34.03c2.49 0 4.5 2.015 4.5 4.5s-2.01 4.5-4.5 4.5m64.81-37H111.5c-2.48 0-4.5-2.015-4.5-4.5s2.02-4.5 4.5-4.5h44.84c2.48 0 4.5 2.015 4.5 4.5s-2.02 4.5-4.5 4.5m0 18H111.5c-2.48 0-4.5-2.015-4.5-4.5 0-2.486 2.02-4.5 4.5-4.5h44.84c2.48 0 4.5 2.014 4.5 4.5 0 2.485-2.02 4.5-4.5 4.5m0 19H111.5c-2.48 0-4.5-2.015-4.5-4.5s2.02-4.5 4.5-4.5h44.84c2.48 0 4.5 2.015 4.5 4.5s-2.02 4.5-4.5 4.5m36.73-75.43H135.5c-2.49 0-4.5-2.015-4.5-4.5V33.5c0-2.485 2.01-4.5 4.5-4.5 2.48 0 4.5 2.015 4.5 4.5v53.07h53.07c2.48 0 4.5 2.015 4.5 4.5s-2.02 4.5-4.5 4.5"/><path d="M37 259.072h151.29V92.964L133.32 38H37v221.072zm155.79 9H32.5c-2.49 0-4.5-2.014-4.5-4.5V33.5c0-2.485 2.01-4.5 4.5-4.5h102.69c1.19 0 2.34.475 3.18 1.318l57.6 57.6c.84.844 1.32 1.988 1.32 3.182v172.472c0 2.486-2.02 4.5-4.5 4.5z"/><path d="M33.88 239.072H4.5c-2.48 0-4.5-2.015-4.5-4.5V4.5C0 2.015 2.02 0 4.5 0h102.69c1.2 0 2.34.474 3.18 1.318l14.7 14.698c1.76 1.757 1.76 4.606 0 6.364-1.75 1.757-4.6 1.757-6.36 0L105.33 9H9v221.072h24.88c2.48 0 4.5 2.015 4.5 4.5s-2.02 4.5-4.5 4.5m77.12-1.13h53.57V199H111v38.943zm58.07 9H106.5c-2.48 0-4.5-2.014-4.5-4.5V194.5c0-2.486 2.02-4.5 4.5-4.5h62.57c2.49 0 4.5 2.014 4.5 4.5v47.943c0 2.485-2.01 4.5-4.5 4.5zM215 139.63h20.92c2.48 0 4.5 2.016 4.5 4.5v8.838l20.96-23.36-20.96-23.357v8.84c0 2.49-2.02 4.5-4.5 4.5H215v20.05zm20.92 29.59c-.54 0-1.09-.098-1.61-.3-1.74-.666-2.89-2.337-2.89-4.2v-16.09H210.5c-2.49 0-4.5-2.014-4.5-4.5v-29.043c0-2.485 2.01-4.5 4.5-4.5h20.92V94.5c0-1.864 1.15-3.536 2.89-4.202 1.74-.667 3.71-.192 4.96 1.196l31.51 35.11c1.53 1.71 1.53 4.3 0 6.01l-31.51 35.11c-.87.97-2.1 1.495-3.35 1.495z"/></g></svg>