<svg width="272" height="271" viewBox="0 0 272 271" xmlns="http://www.w3.org/2000/svg"><title>Slice 1</title><g fill="#0F181F" fill-rule="evenodd"><path d="M267.35 270.83H4.5c-2.49 0-4.5-2.016-4.5-4.5v-24.874c0-2.485 2.01-4.5 4.5-4.5 2.48 0 4.5 2.015 4.5 4.5v20.373h253.85v-20.38c0-19.19-15.6-35.44-34.77-36.21-.23-.01-.45-.04-.67-.08-.78-.15-1.6-.31-2.44-.48-1.69-.34-3.47-.7-5.32-1.09-10.67-2.26-19.22-4.54-25.4-6.76-3.72-1.34-6.54-2.65-8.63-3.99-2.4-1.55-5.17-3.36-7.5-5.09-1.76-1.31-3.21-2.53-4.42-3.72-.91-.91-1.7-1.79-2.39-2.71-2.6-3.45-3.81-7.24-3.81-11.93 0-1.95.35-4.11 1.05-6.6.62-2.19 1.5-4.54 2.69-7.17.58-1.29 1.2-2.58 1.83-3.84l.11-.22c.43-.84.85-1.67 1.29-2.49.06-.12.13-.24.2-.36.89-1.36 1.8-2.85 2.87-4.66.16-.29.33-.58.49-.87l.17-.29c.81-1.42 1.59-2.84 2.32-4.23l.33-.63c7.11-13.74 12.23-29.39 14.06-42.94l.05-.38c.18-1.42.68-8.35.68-9.5v-19.6C195.64 34.4 170.24 9 139.02 9h-6.19c-3.83 0-7.65.388-11.37 1.155-3.62.746-7.19 1.86-10.6 3.31-.84.356-1.69.74-2.51 1.137-19.53 9.445-32.14 29.47-32.14 51.02v9.894c0 2.486-2.02 4.5-4.5 4.5-2.49 0-4.5-2.014-4.5-4.5V65.62c0-24.976 14.61-48.182 37.22-59.12.95-.46 1.93-.905 2.91-1.32 3.96-1.68 8.1-2.974 12.3-3.84C123.96.45 128.4 0 132.83 0h6.19c36.18 0 65.62 29.437 65.62 65.62v19.64c0 1.662-.54 8.967-.76 10.66l-.05.417c-1.96 14.537-7.42 31.252-14.98 45.86l-.36.672c-.78 1.49-1.62 3.01-2.48 4.52l-.16.27c-.18.32-.36.64-.55.95-1.09 1.87-2.04 3.41-2.97 4.84-.37.71-.75 1.43-1.11 2.15l-.11.21c-.58 1.15-1.14 2.32-1.67 3.49-1 2.22-1.73 4.16-2.23 5.91-.47 1.66-.71 3.05-.71 4.15 0 2.75.58 4.63 2 6.51.42.56.92 1.12 1.52 1.71.91.9 2.05 1.85 3.48 2.91 2.11 1.57 4.71 3.28 6.99 4.74 1.49.96 3.78 2 6.81 3.09 5.8 2.09 13.94 4.25 24.21 6.42 1.81.38 3.56.74 5.2 1.06.71.14 1.41.27 2.08.4 24.17 1.16 43.06 20.94 43.06 45.182v24.88c0 2.48-2.01 4.5-4.5 4.5"/><path d="M9 261.998h161.05v-35.202c0-11.573-9.41-21.37-20.98-21.838-.22-.01-.44-.035-.66-.077l-1.59-.31c-1.1-.21-2.26-.45-3.46-.7-6.98-1.47-12.58-2.97-16.64-4.43-2.52-.91-4.45-1.8-5.91-2.74-1.66-1.06-3.41-2.21-4.94-3.35-1.2-.89-2.19-1.72-3.02-2.54-.65-.64-1.21-1.27-1.71-1.93-1.87-2.48-2.78-5.32-2.78-8.67 0-1.41.24-2.95.74-4.7.42-1.49 1.02-3.08 1.82-4.86.38-.84.79-1.69 1.21-2.54l.07-.13c.29-.57.57-1.11.85-1.65.06-.12.13-.24.21-.35.55-.85 1.13-1.79 1.81-2.95l.42-.73c.51-.88 1-1.78 1.47-2.69l.22-.4c4.51-8.72 7.77-18.66 8.93-27.25l.03-.26c.11-.85.42-5.18.42-5.92v-12.71c0-19.32-15.72-35.04-35.04-35.04h-4c-2.37 0-4.73.24-7.04.72-2.24.46-4.44 1.15-6.56 2.05-.52.22-1.04.46-1.55.7-12.08 5.85-19.89 18.24-19.89 31.58v12.71c0 .74.31 5.07.43 5.95l.02.18c1.16 8.64 4.42 18.57 8.93 27.3l.22.412c.47.9.97 1.79 1.47 2.67l.42.728c.68 1.17 1.26 2.1 1.81 2.95.08.113.15.23.21.36.84 1.58 1.53 2.993 2.13 4.31.49 1.09.92 2.14 1.27 3.135.87 2.44 1.29 4.546 1.29 6.43 0 1.93-.29 3.645-.88 5.24-1.36 3.635-4.11 6.04-6.63 7.91-1.53 1.145-3.28 2.29-4.94 3.36-3.32 2.13-9.47 4.21-18.83 6.354-2.73.62-5.68 1.24-8.77 1.83-.22.042-.44.07-.66.08-4.88.2-9.62 2.072-13.35 5.29-1.03.89-1.99 1.883-2.85 2.95-1.74 2.18-3.03 4.63-3.84 7.27-.62 2.04-.93 4.17-.93 6.32V262zm165.55 9H4.5c-2.49 0-4.5-2.015-4.5-4.5v-39.702c0-3.042.44-6.05 1.32-8.944 1.14-3.74 2.97-7.192 5.42-10.265 1.2-1.502 2.55-2.9 4-4.154 5.18-4.46 11.74-7.098 18.51-7.45 2.87-.555 5.61-1.13 8.14-1.71 10.76-2.47 14.63-4.29 15.97-5.154 1.45-.94 3.12-2.03 4.43-3.01 2.08-1.55 3.15-2.7 3.57-3.84.22-.57.32-1.26.32-2.1 0-.57-.13-1.63-.77-3.42-.27-.76-.6-1.59-.99-2.44-.5-1.1-1.09-2.3-1.8-3.65-.59-.92-1.2-1.92-1.91-3.13-.12-.21-.25-.42-.37-.64l-.1-.19c-.56-.98-1.1-1.97-1.63-2.97l-.24-.47c-4.97-9.6-8.56-20.6-9.85-30.17l-.03-.21c-.14-1.11-.51-5.95-.51-7.18V113c0-16.764 9.8-32.34 24.98-39.68.64-.31 1.29-.604 1.94-.884 2.66-1.13 5.44-2 8.27-2.58 2.9-.6 5.87-.9 8.85-.9h4c24.29 0 44.04 19.76 44.04 44.04V125.7c0 1.228-.36 6.06-.5 7.1l-.03.278c-1.3 9.58-4.89 20.58-9.86 30.19l-.23.44c-.53 1.01-1.08 2.002-1.64 2.98l-.46.812c-.71 1.21-1.33 2.21-1.92 3.13-.23.44-.46.872-.68 1.31l-.07.147c-.37.73-.72 1.46-1.05 2.19-.61 1.35-1.07 2.56-1.36 3.61-.26.93-.4 1.69-.4 2.25 0 1.63.39 2.48.97 3.25.23.3.5.6.83.93.54.53 1.22 1.1 2.09 1.74 1.32.98 2.98 2.07 4.43 3 .6.38 1.79 1.01 4.09 1.84 3.63 1.31 8.97 2.726 15.45 4.1 1.16.244 2.29.47 3.35.68l1.22.24c16.44.85 29.26 14.32 29.26 30.816v39.703c0 2.48-2.02 4.5-4.5 4.5z"/></g></svg>