<svg width="117" height="117" viewBox="0 0 117 117" xmlns="http://www.w3.org/2000/svg"><title>Slice 1</title><g fill-rule="evenodd"><path d="M3.25 116.468c-1.8 0-3.25-1.455-3.25-3.25V102.77c0-2.005.29-3.99.87-5.9.76-2.468 1.96-4.747 3.58-6.774.79-.99 1.68-1.912 2.64-2.74 3.41-2.938 7.73-4.678 12.19-4.916 1.85-.358 3.62-.73 5.25-1.104.73-.167 1.47-.343 2.2-.527 1.74-.44 1.06-.12 1.5 1.62.43 1.74-.51.63-2.25 1.07-.77.19-3.885 1.63-4.665 1.81-1.77.4-2.333 2.51-4.343 2.89-3.09.13-8.102.92-10.472 2.96-.65.57-1.51 3.53-2.05 4.2-1.11 1.38-.69 5.71-1.2 7.39-.39 1.29 0 4.74 0 6.11l3.25 1.09h103.9v-7.2c0-7.34-5.97-13.55-13.3-13.85-.16-.01-.33-.03-.48-.06l-1.04-.2c-.71-.14-1.47-.3-2.25-.46-4.54-.96-8.19-1.94-10.85-2.89-1.65-.6-2.93-1.19-3.89-1.81-1.03-.66-2.22-1.44-3.23-2.2-.79-.59-1.45-1.14-2-1.69-.43-.43-.8-.85-1.14-1.29-1.26-1.68-1.87-3.58-1.87-5.83 0-.95.16-1.98.49-3.15.28-.99.67-2.04 1.2-3.2.25-.56.52-1.11.8-1.67.22-.46.41-.81.59-1.16.56-.88.94-1.51 1.32-2.16l.27-.47c.33-.57.65-1.15.95-1.74 3.06-5.89 5.16-12.3 5.9-17.84.09-.7.3-3.49.3-3.97V28.9c0-12.36-10.06-22.42-22.42-22.42h-2.6c-1.52 0-3.03.155-4.5.46-1.44.294-2.85.734-4.2 1.31-.33.14-.66.29-.99.45-7.74 3.74-12.73 11.67-12.73 20.203 0 .73.2 3.52.27 4.07.05.39.09.63.13.87.27 1.775-.95 3.434-2.72 3.707-1.78.276-3.44-.942-3.71-2.716l-.12-.84c-.12-.897-.35-4.017-.35-4.837 0-11.256 6.43-21.483 16.4-26.303.42-.2.85-.395 1.28-.58 1.75-.75 3.57-1.32 5.43-1.7C53.24.2 55.19 0 57.15 0h2.6c15.94 0 28.92 12.974 28.92 28.92v8.25c0 .818-.24 3.937-.33 4.653-.87 6.435-3.21 13.617-6.46 19.885-.5.947-.85 1.594-1.22 2.234l-.3.527c-.41.69-.82 1.37-1.25 2.03-.14.27-.29.55-.43.83-.28.56-.5 1.03-.72 1.5-.38.86-.68 1.63-.86 2.29-.21.71-.25 1.14-.25 1.37 0 .97.22 1.45.56 1.91.14.18.31.37.51.56.34.33.77.69 1.32 1.1.85.63 1.93 1.34 2.86 1.94.37.24 1.12.63 2.59 1.16 2.34.84 5.79 1.76 9.99 2.64.75.16 1.48.31 2.16.44l.78.15c10.83.57 19.28 9.45 19.28 20.33v10.45c0 1.79-1.46 3.25-3.25 3.25H3.25z"/><path d="M71.42 111.997V98.443c0-4.195-3.37-7.747-7.5-7.917-.17-.003-.33-.02-.49-.052l-.67-.132c-.47-.094-.96-.197-1.47-.306-2.99-.643-5.41-1.295-7.17-1.94-1.16-.422-2.06-.85-2.75-1.303-.72-.466-1.48-.97-2.16-1.483-.55-.415-1.01-.81-1.41-1.206-.32-.32-.6-.638-.85-.972-.97-1.307-1.44-2.787-1.44-4.522 0-.73.12-1.508.36-2.377.2-.703.47-1.44.84-2.26.17-.375.34-.755.53-1.135.15-.304.27-.54.4-.776.04-.09.09-.177.15-.263.25-.39.49-.8.73-1.2l.13-.24c.24-.43.44-.79.63-1.17 1.91-3.74 3.23-7.81 3.7-11.31.05-.42.17-2.1.18-2.46v-5.39c0-7.47-6-13.54-13.36-13.54h-1.68c-.9 0-1.81.09-2.68.27-.86.17-1.7.44-2.5.79-.2.08-.4.17-.59.27-4.61 2.26-7.59 7.05-7.59 12.2v5.4c.01.34.13 2.03.17 2.35.48 3.59 1.79 7.66 3.62 11.24.28.53.48.9.68 1.26l.17.3c.24.4.48.81.73 1.2.05.08.1.17.15.26.33.63.65 1.27.93 1.91.22.48.41.97.58 1.44.41 1.18.62 2.23.62 3.19 0 .99-.15 1.87-.46 2.71-.7 1.89-2.1 3.13-3.25 3.99-.68.51-1.47 1.04-2.15 1.48-.97.63-2.9 1.62-8.34 2.89-1.16.27-2.41.53-3.73.79-.16.03-.32.05-.48.05-1.77.07-3.42.73-4.77 1.92-.37.32-.72.68-1.02 1.07-.63.79-1.09 1.68-1.38 2.64-.22.74-.33 1.51-.33 2.29V112l64.92-.005zm-66.44 1.396c-1.8 0-4.98 1.794-4.98 0v-15.76c0-1.41.21-2.807.61-4.152.53-1.73 1.38-3.33 2.52-4.76.56-.69 1.18-1.34 1.85-1.92 2.38-2.04 5.39-3.26 8.5-3.45.97-.19 2.11-.42 3.28-.69 4.6-1.05 5.97-1.78 6.28-1.98.59-.38 1.26-.82 1.78-1.21.83-.62 1-.9 1.04-.99.03-.08.05-.22.05-.4 0-.05-.02-.32-.25-.98-.11-.3-.23-.61-.37-.92-.21-.46-.45-.94-.69-1.4-.28-.43-.55-.87-.81-1.31l-.15-.27c-.29-.51-.53-.94-.76-1.38-2.26-4.36-3.82-9.15-4.38-13.32-.08-.61-.24-2.7-.24-3.28v-5.34c0-7.56 4.42-14.58 11.26-17.89.29-.14.58-.27.88-.39 1.2-.51 2.45-.9 3.73-1.16 1.3-.27 2.65-.4 3.99-.4h1.68c10.95 0 19.86 8.91 19.86 19.86v5.33c0 .58-.16 2.66-.23 3.16-.57 4.29-2.13 9.08-4.29 13.24-.33.63-.57 1.06-.81 1.49l-.21.36c-.26.44-.52.88-.8 1.31-.08.16-.16.32-.25.48-.17.35-.31.64-.44.93-.23.51-.4.95-.5 1.33-.12.4-.12.56-.12.58 0 .37.06.45.14.55.06.08.13.16.21.24.18.18.42.38.73.61.53.39 1.2.83 1.79 1.21.13.08.52.306 1.44.64 1.47.53 3.65 1.107 6.31 1.67.49.1.95.197 1.39.284l.42.08c7.58.44 13.48 6.67 13.48 14.296v15.76c0 1.8-1.46 1.25-3.25 1.25l-69.69-1.3z"/></g></svg>