<svg xmlns="http://www.w3.org/2000/svg" width="116" height="117" viewBox="0 0 116 117"><path d="M47.83 81.38c-.86 0-1.69-.34-2.3-.95l-18.1-18.102c-1.27-1.27-1.27-3.328 0-4.596 1.27-1.27 3.33-1.27 4.6 0l15.8 15.803L83.89 37.47c1.27-1.27 3.33-1.27 4.6 0 1.27 1.268 1.27 3.327 0 4.595L50.13 80.43c-.61.61-1.44.95-2.3.95"/><path d="M57.96 7.23C29.7 7.23 6.72 30.216 6.72 58.472c0 28.256 22.98 51.244 51.24 51.244S109.2 86.73 109.2 58.473 86.22 7.23 57.96 7.23zm0 108.987C26.12 116.217.22 90.313.22 58.473S26.12.73 57.96.73c31.84 0 57.74 25.903 57.74 57.743 0 31.84-25.9 57.744-57.74 57.744z"/></svg>