<svg xmlns="http://www.w3.org/2000/svg" viewBox="-121.5 0 460 460" enable-background="new -121.5 0 460 460"><title>Fill 704 + Fill 705</title><g transform="translate(-6882 -5632)"><defs><filter id="a" filterUnits="userSpaceOnUse" x="6882.6" y="5789" width="215.7" height="122"><feColorMatrix values="1 0 0 0 0 0 1 0 0 0 0 0 1 0 0 0 0 0 1 0"/></filter></defs><mask maskUnits="userSpaceOnUse" x="6882.6" y="5789" width="215.7" height="122" id="b"><path fill="#FFF" d="M8978.9 14394.9V157.3H.3v14237.6h8978.6z" filter="url(#a)"/></mask><g fill="#0F181F" mask="url(#b)"><path d="M6990.5 5791.5l105.4 117h-210.8l105.4-117"/><path d="M6890.7 5906h199.5l-99.7-110.8-99.8 110.8zm205.2 5h-210.8c-1 0-1.9-.6-2.3-1.5-.4-.9-.2-2 .4-2.7l105.4-117c1-1 2.8-1 3.7 0l105.2 116.9c.5.5.8 1.1.8 1.9.1 1.3-1.1 2.4-2.4 2.4z"/></g></g></svg>