<svg version="1.1" xmlns="http://www.w3.org/2000/svg" xmlns:xlink="http://www.w3.org/1999/xlink"><symbol viewBox="0 0 216 146" id="shape-facebook25"><title>facebook25</title><path d="M118.348 49.86V38.293c0-1.737.08-3.082.243-4.032.163-.952.53-1.888 1.102-2.812.57-.923 1.494-1.56 2.77-1.914 1.277-.354 2.975-.53 5.094-.53h11.568V5.866H120.63c-10.702 0-18.387 2.54-23.058 7.617-4.67 5.08-7.006 12.56-7.006 22.446v13.93H76.714V73h13.85v67.134h27.784V73h18.494l2.444-23.14h-20.938z"/></symbol><symbol viewBox="0 0 216 146" id="shape-instagram3"><title>instagram3</title><path d="M165.846 15.155c-3.15-3.15-6.926-4.726-11.324-4.726H61.48c-4.4 0-8.175 1.574-11.326 4.724-3.15 3.15-4.726 6.925-4.726 11.324v93.04c0 4.4 1.575 8.175 4.726 11.325 3.15 3.15 6.926 4.727 11.325 4.727h93.04c4.4 0 8.174-1.576 11.324-4.727 3.15-3.15 4.725-6.925 4.725-11.324V26.48c0-4.4-1.575-8.174-4.725-11.325zm-75.484 40.37c4.915-4.753 10.822-7.13 17.72-7.13 6.952 0 12.886 2.377 17.802 7.13 4.915 4.752 7.373 10.496 7.373 17.23 0 6.735-2.458 12.48-7.373 17.23-4.916 4.754-10.85 7.13-17.802 7.13-6.898 0-12.804-2.377-17.72-7.13s-7.374-10.495-7.374-17.23c0-6.734 2.458-12.478 7.374-17.23zm66.034 60.657c0 1.41-.49 2.592-1.467 3.543-.98.95-2.148 1.426-3.507 1.426H64.33c-1.41 0-2.593-.473-3.543-1.424-.95-.95-1.426-2.132-1.426-3.543V63.386h11.49c-1.086 3.422-1.63 6.98-1.63 10.673 0 10.43 3.803 19.322 11.407 26.682 7.605 7.36 16.757 11.04 27.457 11.04 7.06 0 13.58-1.685 19.555-5.052 5.974-3.368 10.697-7.943 14.175-13.728 3.477-5.785 5.215-12.1 5.215-18.943 0-3.695-.545-7.25-1.63-10.675h11v52.796zm0-72.757c0 1.575-.543 2.906-1.63 3.992-1.087 1.087-2.417 1.63-3.993 1.63h-14.176c-1.574 0-2.906-.543-3.992-1.63-1.086-1.086-1.63-2.417-1.63-3.992V29.983c0-1.52.544-2.838 1.63-3.952 1.086-1.11 2.418-1.67 3.992-1.67h14.176c1.576 0 2.906.56 3.992 1.67 1.088 1.116 1.63 2.433 1.63 3.954v13.442z"/></symbol></svg>